<svg width="28" height="28" viewBox="0 0 28 28" fill="none" xmlns="http://www.w3.org/2000/svg">
<circle opacity="0.2" cx="14.1094" cy="14.0001" r="13.523" fill="#FFE500"/>
<g clip-path="url(#clip0_178_136)">
<path d="M18.7893 12.9596C18.7893 16.6004 14.1083 19.7211 14.1083 19.7211C14.1083 19.7211 9.42725 16.6004 9.42725 12.9596C9.42725 11.7181 9.92043 10.5275 10.7983 9.64961C11.6762 8.77174 12.8668 8.27856 14.1083 8.27856C15.3498 8.27856 16.5404 8.77174 17.4183 9.64961C18.2961 10.5275 18.7893 11.7181 18.7893 12.9596Z" stroke="#FFE500" stroke-linecap="round" stroke-linejoin="round"/>
<path d="M14.1082 14.5201C14.97 14.5201 15.6685 13.8215 15.6685 12.9598C15.6685 12.098 14.97 11.3994 14.1082 11.3994C13.2464 11.3994 12.5479 12.098 12.5479 12.9598C12.5479 13.8215 13.2464 14.5201 14.1082 14.5201Z" stroke="#FFE500" stroke-linecap="round" stroke-linejoin="round"/>
</g>
<defs>
<clipPath id="clip0_178_136">
<rect width="12.4828" height="12.4828" fill="white" transform="translate(7.8667 7.75854)"/>
</clipPath>
</defs>
</svg>
