<svg width="993" height="993" viewBox="0 0 993 993" fill="none" xmlns="http://www.w3.org/2000/svg">
<path fill-rule="evenodd" clip-rule="evenodd" d="M679.273 429.215H714.516C724.871 429.215 733.988 434.352 739.348 442.574C752.633 434.383 768.688 432.445 781.898 443.773C792.422 452.797 795.293 465.809 795.293 479.004C795.293 501.035 795.293 523.066 795.293 545.098C795.293 623.266 795.102 697.375 795.102 776.461C795.496 779.555 795.398 782.766 794.742 785.988C791.52 801.777 776.109 811.965 760.32 808.742C680.406 792.434 597.242 782.031 510.352 780.863C423.699 779.699 332.949 787.762 237.48 808.371C221.691 811.781 206.129 801.746 202.719 785.957C202.039 782.812 201.895 779.68 202.223 776.645H202.219C202.219 680.551 202.055 578.535 202.055 482.43C200.598 477.285 199.172 472.133 197.809 466.965C194.273 453.613 200.141 439.953 212.234 433.316C224.52 426.562 239.141 429.219 248.355 439.176L248.398 439.227C250.617 441.633 252.859 444.023 255.125 446.398C259.945 435.977 270.191 429.215 282.074 429.215H339.926C339.23 425.184 338.605 421.094 338.152 416.871C337.055 406.656 337.109 396.352 337.695 386.105C338.312 375.281 340.605 364.641 343.699 354.273C349.602 334.496 358.992 316.434 371.672 300.152C378.984 290.758 387.355 282.473 396.461 274.973L391.852 271.203L384.711 262.48C375.852 253.48 372.949 240.332 378.25 228.328C384.086 215.051 397.961 207.844 412.133 209.875C422.945 211.426 432.918 214.875 441.637 221.141C444.816 222.98 449.824 224.223 454.086 223.363C464.02 221.359 467.445 207.316 471.031 199.645C476.246 188.5 487.242 182.742 498.234 182.785C509.223 182.742 520.223 188.5 525.434 199.645C529.023 207.316 532.449 221.359 542.379 223.363C546.641 224.223 551.652 222.98 554.828 221.141C563.547 214.875 573.52 211.426 584.332 209.875C598.508 207.844 612.383 215.051 618.219 228.328C623.52 240.332 620.617 253.48 611.754 262.48L604.617 271.203L600.164 274.84C606.172 279.75 611.91 284.965 617.121 290.754C630.16 305.238 640.523 321.473 647.809 339.566C652.078 350.168 655.215 361.172 657.348 372.395C659.355 382.969 659.434 393.699 659.223 404.422C659.055 413.047 658.297 421.297 657.062 429.215H679.273Z" fill="black"/>
<path fill-rule="evenodd" clip-rule="evenodd" d="M660.172 458.898C655.273 478.98 646.75 497.645 635.336 514.156C635.293 514.219 635.297 514.301 635.348 514.355C635.395 514.414 635.477 514.426 635.543 514.391C664.402 499.406 691.242 480.363 714.625 459.059C714.676 459.012 714.691 458.941 714.668 458.879C714.641 458.816 714.586 458.773 714.516 458.773H660.332C660.254 458.773 660.191 458.824 660.172 458.898ZM336.414 458.898C341.316 478.98 349.84 497.645 361.254 514.156C361.297 514.219 361.293 514.301 361.242 514.355C361.191 514.414 361.113 514.426 361.047 514.391C332.188 499.406 305.348 480.363 281.965 459.059C281.914 459.012 281.898 458.941 281.922 458.879C281.945 458.816 282.004 458.773 282.074 458.773H336.258C336.332 458.773 336.398 458.824 336.414 458.898ZM247.238 661.84C247.238 660.848 246.988 660.031 246.492 659.391C245.996 658.746 245.254 658.426 244.262 658.426H243.473C242.48 658.426 241.734 658.746 241.238 659.391C240.742 660.031 240.496 660.848 240.496 661.84V665.867C240.496 667.328 240.699 668.41 241.109 669.109C241.516 669.809 242.332 670.48 243.559 671.121C243.559 671.125 243.562 671.125 243.562 671.125L257.309 678.656C258.828 679.473 259.906 680.523 260.551 681.809C261.191 683.094 261.512 684.668 261.512 686.539V702.387C261.512 704.781 260.973 706.578 259.891 707.773C258.812 708.973 257.047 709.57 254.594 709.57H233.051C230.598 709.57 228.848 708.973 227.797 707.773C226.746 706.578 226.219 704.781 226.219 702.387V682.957C226.219 682.898 226.25 682.848 226.297 682.816C226.348 682.789 226.406 682.785 226.461 682.816L239.621 689.996C239.676 690.023 239.707 690.074 239.707 690.137V695.996C239.707 696.988 239.953 697.805 240.449 698.445C240.945 699.09 241.691 699.41 242.684 699.41H244.523C245.516 699.41 246.258 699.09 246.754 698.445C247.25 697.805 247.5 696.988 247.5 695.996V692.055C247.5 690.594 247.297 689.516 246.887 688.812C246.477 688.113 245.66 687.441 244.434 686.801L230.598 679.355C229.082 678.539 228.016 677.488 227.402 676.203C226.789 674.918 226.48 673.344 226.48 671.473V655.449C226.48 653.055 227.008 651.258 228.059 650.062C229.109 648.863 230.859 648.266 233.312 648.266H253.895C256.344 648.266 258.098 648.863 259.148 650.062C260.199 651.258 260.723 653.055 260.723 655.449V674.355C260.723 674.414 260.695 674.465 260.645 674.492C260.594 674.523 260.535 674.523 260.484 674.496L247.32 667.316C247.27 667.289 247.238 667.234 247.238 667.176V661.84ZM295.582 648.266C298.031 648.266 299.785 648.863 300.836 650.062C301.887 651.258 302.41 653.055 302.41 655.449V702.387C302.41 704.781 301.887 706.578 300.836 707.773C299.785 708.973 298.031 709.57 295.582 709.57H273.598C271.148 709.57 269.395 708.973 268.344 707.773C267.293 706.578 266.766 704.781 266.766 702.387V655.449C266.766 653.055 267.293 651.258 268.344 650.062C269.395 648.863 271.148 648.266 273.598 648.266H295.582ZM288.398 661.84C288.398 660.848 288.152 660.031 287.656 659.391C287.16 658.746 286.414 658.426 285.422 658.426H283.758C282.766 658.426 282.02 658.746 281.523 659.391C281.027 660.031 280.781 660.848 280.781 661.84V695.996C280.781 696.988 281.027 697.805 281.523 698.449C282.02 699.09 282.766 699.41 283.758 699.41H285.422C286.414 699.41 287.16 699.09 287.656 698.449C288.152 697.805 288.398 696.988 288.398 695.996V661.84ZM329.996 661.84C329.996 660.848 329.75 660.031 329.254 659.391C328.758 658.746 328.012 658.426 327.02 658.426H325.355C324.363 658.426 323.617 658.746 323.121 659.391C322.625 660.031 322.379 660.848 322.379 661.84V695.996C322.379 696.988 322.625 697.805 323.121 698.449C323.617 699.09 324.363 699.41 325.355 699.41H327.02C328.012 699.41 328.758 699.09 329.254 698.449C329.75 697.805 329.996 696.988 329.996 695.996V684.883C329.996 684.82 330.031 684.77 330.082 684.738L343.332 677.559C343.383 677.531 343.441 677.531 343.492 677.562C343.543 677.594 343.574 677.645 343.574 677.703V702.391C343.574 704.781 343.031 706.578 341.953 707.773C340.871 708.973 339.105 709.57 336.652 709.57H315.199C312.746 709.57 310.992 708.973 309.941 707.773C308.891 706.578 308.367 704.781 308.367 702.391V655.449C308.367 653.055 308.891 651.258 309.941 650.062C310.992 648.867 312.746 648.266 315.199 648.266H336.652C339.105 648.266 340.871 648.867 341.953 650.062C343.031 651.258 343.574 653.055 343.574 655.449V670.852C343.574 670.914 343.543 670.965 343.488 670.996L330.238 678.176C330.188 678.203 330.129 678.203 330.078 678.172C330.027 678.145 329.996 678.094 329.996 678.035V661.84ZM366.5 709.57H347.441C347.383 709.57 347.332 709.539 347.301 709.488C347.273 709.438 347.273 709.379 347.301 709.328L349.945 704.703C349.957 704.676 349.965 704.652 349.965 704.621V653.215C349.965 653.184 349.961 653.16 349.945 653.133L347.301 648.508C347.273 648.457 347.273 648.398 347.301 648.348C347.332 648.297 347.383 648.266 347.441 648.266H366.5C366.559 648.266 366.609 648.297 366.641 648.348C366.672 648.398 366.672 648.457 366.641 648.508L364 653.133C363.984 653.16 363.977 653.184 363.977 653.215V704.621C363.977 704.652 363.984 704.676 364 704.703L366.641 709.328C366.672 709.379 366.672 709.438 366.641 709.488C366.609 709.539 366.559 709.57 366.5 709.57ZM408.398 704.695L411.371 709.32C411.402 709.371 411.406 709.434 411.375 709.484C411.348 709.539 411.293 709.57 411.234 709.57H391.223C391.164 709.57 391.113 709.543 391.082 709.492C391.051 709.441 391.051 709.383 391.078 709.332L393.555 704.711C393.57 704.68 393.574 704.648 393.57 704.617L392.98 699.117C392.973 699.035 392.902 698.973 392.82 698.973H384.789C384.707 698.973 384.637 699.035 384.629 699.117L384.035 704.617C384.031 704.648 384.039 704.68 384.055 704.707L386.449 709.332C386.477 709.383 386.473 709.441 386.445 709.492C386.414 709.543 386.363 709.57 386.305 709.57H366.824C366.762 709.57 366.707 709.539 366.68 709.484C366.652 709.43 366.652 709.367 366.688 709.316L369.824 704.695C369.84 704.676 369.848 704.656 369.852 704.629L378.754 648.402C378.77 648.324 378.836 648.266 378.914 648.266H399.219C399.301 648.266 399.367 648.324 399.379 648.402L408.375 704.633C408.379 704.656 408.387 704.676 408.398 704.695ZM385.875 688.727H391.645C391.691 688.727 391.734 688.707 391.766 688.672C391.797 688.637 391.812 688.594 391.809 688.547L388.922 662.094C388.914 662.012 388.844 661.949 388.762 661.949C388.68 661.949 388.609 662.012 388.598 662.094L385.715 688.547C385.711 688.594 385.723 688.637 385.758 688.672C385.789 688.707 385.828 688.727 385.875 688.727ZM413.984 704.621V653.215C413.984 653.184 413.977 653.16 413.961 653.133L411.32 648.508C411.289 648.457 411.289 648.398 411.32 648.348C411.352 648.297 411.402 648.266 411.461 648.266H430.602C430.66 648.266 430.711 648.297 430.742 648.348C430.773 648.402 430.773 648.461 430.742 648.512L428.016 653.133C428.004 653.16 427.996 653.184 427.996 653.215V699.25C427.996 699.34 428.066 699.41 428.156 699.41H434.438C434.465 699.41 434.488 699.406 434.512 699.395L444.227 694.621C444.277 694.598 444.336 694.598 444.383 694.629C444.434 694.66 444.461 694.711 444.461 694.766V709.406C444.461 709.496 444.387 709.57 444.297 709.57H411.461C411.402 709.57 411.352 709.539 411.32 709.488C411.289 709.438 411.289 709.379 411.32 709.328L413.961 704.703C413.977 704.676 413.984 704.652 413.984 704.621ZM487.637 661.84C487.637 660.848 487.387 660.031 486.891 659.391C486.395 658.746 485.648 658.426 484.656 658.426H482.992C482 658.426 481.258 658.746 480.762 659.391C480.266 660.031 480.016 660.848 480.016 661.84V695.996C480.016 696.988 480.266 697.805 480.762 698.449C481.258 699.09 482 699.41 482.992 699.41H484.656C485.648 699.41 486.395 699.09 486.891 698.449C487.387 697.805 487.637 696.988 487.637 695.996V684.883C487.637 684.82 487.668 684.77 487.719 684.738L500.969 677.559C501.02 677.531 501.078 677.531 501.129 677.562C501.18 677.594 501.207 677.645 501.207 677.703V702.391C501.207 704.781 500.668 706.578 499.59 707.773C498.508 708.973 496.742 709.57 494.289 709.57H472.836C470.383 709.57 468.633 708.973 467.578 707.773C466.527 706.578 466.004 704.781 466.004 702.391V655.449C466.004 653.055 466.527 651.258 467.578 650.062C468.633 648.867 470.383 648.266 472.836 648.266H494.289C496.742 648.266 498.508 648.867 499.59 650.062C500.668 651.258 501.207 653.055 501.207 655.449V670.852C501.207 670.914 501.176 670.965 501.125 670.996L487.875 678.176C487.824 678.203 487.766 678.203 487.715 678.172C487.664 678.145 487.637 678.094 487.637 678.035V661.84ZM544.664 704.695L547.637 709.32C547.672 709.371 547.672 709.434 547.645 709.484C547.617 709.539 547.562 709.57 547.504 709.57H527.488C527.43 709.57 527.383 709.543 527.352 709.492C527.32 709.441 527.32 709.383 527.348 709.332L529.824 704.711C529.84 704.68 529.844 704.648 529.84 704.617L529.25 699.117C529.238 699.035 529.172 698.973 529.09 698.973H521.059C520.977 698.973 520.906 699.035 520.898 699.117L520.305 704.617C520.301 704.648 520.309 704.68 520.324 704.707L522.719 709.332C522.746 709.383 522.742 709.441 522.711 709.492C522.684 709.543 522.633 709.57 522.574 709.57H503.094C503.031 709.57 502.977 709.539 502.949 709.484C502.918 709.43 502.922 709.367 502.957 709.316L506.094 704.695C506.105 704.676 506.113 704.656 506.117 704.629L515.023 648.402C515.035 648.324 515.102 648.266 515.184 648.266H535.488C535.566 648.266 535.637 648.324 535.648 648.402L544.641 704.633C544.645 704.656 544.652 704.676 544.664 704.695ZM522.145 688.727H527.914C527.961 688.727 528.004 688.707 528.035 688.672C528.066 688.637 528.082 688.594 528.074 688.547L525.191 662.094C525.184 662.012 525.113 661.949 525.031 661.949C524.945 661.949 524.879 662.012 524.867 662.094L521.984 688.547C521.98 688.594 521.992 688.637 522.023 688.672C522.059 688.707 522.098 688.727 522.145 688.727ZM580.941 709.57H570.617C570.539 709.57 570.473 709.512 570.457 709.434L563.535 669.562C563.52 669.48 563.445 669.422 563.363 669.43C563.277 669.438 563.215 669.508 563.215 669.59V704.625C563.215 704.652 563.219 704.676 563.234 704.703L565.793 709.328C565.824 709.379 565.82 709.438 565.793 709.488C565.762 709.539 565.711 709.57 565.652 709.57H547.641C547.582 709.57 547.531 709.539 547.5 709.488C547.473 709.438 547.473 709.379 547.5 709.328L550.145 704.703C550.156 704.676 550.164 704.652 550.164 704.621V653.215C550.164 653.184 550.156 653.16 550.145 653.133L547.5 648.508C547.473 648.457 547.473 648.398 547.5 648.348C547.531 648.297 547.582 648.266 547.641 648.266H573.688C573.738 648.266 573.781 648.289 573.812 648.332C573.848 648.371 573.855 648.422 573.844 648.473L572.594 653.141C572.586 653.16 572.586 653.18 572.59 653.203L576.016 679.371C576.027 679.449 576.094 679.512 576.176 679.512C576.258 679.512 576.328 679.453 576.336 679.371L579.848 653.203C579.852 653.18 579.852 653.16 579.844 653.141L578.594 648.473C578.582 648.422 578.59 648.371 578.621 648.332C578.652 648.289 578.699 648.266 578.75 648.266H605.059C605.117 648.266 605.168 648.297 605.199 648.348C605.227 648.398 605.227 648.457 605.199 648.508L602.559 653.133C602.543 653.16 602.535 653.184 602.535 653.215V704.621C602.535 704.652 602.543 704.676 602.559 704.703L605.199 709.328C605.227 709.379 605.227 709.438 605.199 709.488C605.168 709.539 605.117 709.57 605.059 709.57H586C585.941 709.57 585.891 709.539 585.859 709.488C585.832 709.438 585.832 709.379 585.859 709.328L588.504 704.703C588.516 704.676 588.523 704.652 588.523 704.621V669.715C588.523 669.629 588.461 669.559 588.375 669.555C588.293 669.543 588.215 669.602 588.203 669.688L581.102 709.438C581.09 709.516 581.023 709.57 580.941 709.57ZM607.367 648.266H638.09C640.543 648.266 642.293 648.863 643.344 650.062C644.395 651.258 644.922 653.055 644.922 655.449V677.516C644.922 679.91 644.395 681.707 643.344 682.902C642.293 684.102 640.543 684.699 638.09 684.699H624.066C623.977 684.699 623.902 684.77 623.902 684.859V704.621C623.902 704.652 623.91 704.676 623.926 704.703L626.566 709.328C626.598 709.379 626.598 709.438 626.566 709.488C626.539 709.539 626.488 709.57 626.426 709.57H607.367C607.309 709.57 607.258 709.539 607.227 709.488C607.199 709.438 607.199 709.379 607.227 709.328L609.871 704.703C609.883 704.676 609.891 704.652 609.891 704.621V653.215C609.891 653.184 609.887 653.16 609.871 653.133L607.227 648.508C607.199 648.457 607.199 648.398 607.227 648.348C607.258 648.297 607.309 648.266 607.367 648.266ZM630.91 663.066C630.91 661.723 630.574 660.613 629.902 659.738C629.23 658.863 628.223 658.426 626.879 658.426H624.066C623.977 658.426 623.902 658.5 623.902 658.586V674.379C623.902 674.469 623.977 674.539 624.066 674.539H626.879C628.223 674.539 629.23 674.102 629.902 673.227C630.574 672.352 630.91 671.242 630.91 669.898V663.066ZM664.438 673.84H672.035C672.059 673.84 672.078 673.832 672.102 673.824L676.918 671.582C676.969 671.559 677.027 671.562 677.074 671.594C677.121 671.621 677.148 671.672 677.148 671.727V686.109C677.148 686.164 677.121 686.215 677.074 686.246C677.027 686.273 676.969 686.277 676.918 686.254L672.102 684.012C672.078 684.004 672.059 683.996 672.035 683.996H664.438C664.348 683.996 664.277 684.07 664.277 684.16V699.25C664.277 699.34 664.348 699.41 664.438 699.41H672.559C672.582 699.41 672.605 699.406 672.629 699.395L682.348 694.621C682.398 694.598 682.453 694.598 682.504 694.629C682.551 694.66 682.578 694.711 682.578 694.766V709.406C682.578 709.496 682.508 709.57 682.418 709.57H647.742C647.68 709.57 647.629 709.539 647.602 709.488C647.57 709.438 647.57 709.379 647.598 709.328L650.242 704.703C650.258 704.676 650.262 704.652 650.262 704.621V653.215C650.262 653.184 650.258 653.16 650.242 653.133L647.598 648.508C647.57 648.457 647.57 648.398 647.602 648.348C647.629 648.297 647.68 648.266 647.742 648.266H682.418C682.508 648.266 682.578 648.34 682.578 648.43V663.07C682.578 663.129 682.551 663.176 682.504 663.207C682.453 663.238 682.398 663.242 682.348 663.215L672.629 658.441C672.605 658.43 672.582 658.426 672.559 658.426H664.438C664.348 658.426 664.277 658.496 664.277 658.586V673.676C664.277 673.766 664.348 673.84 664.438 673.84ZM725.246 704.695L728.219 709.32C728.254 709.371 728.258 709.434 728.227 709.484C728.199 709.539 728.145 709.57 728.086 709.57H708.07C708.012 709.57 707.965 709.543 707.934 709.492C707.902 709.441 707.902 709.383 707.93 709.332L710.406 704.711C710.422 704.68 710.426 704.648 710.422 704.617L709.832 699.117C709.82 699.035 709.754 698.973 709.668 698.973H701.641C701.559 698.973 701.488 699.035 701.48 699.117L700.887 704.617C700.883 704.648 700.891 704.68 700.906 704.707L703.301 709.332C703.328 709.383 703.324 709.441 703.293 709.492C703.266 709.543 703.215 709.57 703.156 709.57H683.672C683.613 709.57 683.559 709.539 683.531 709.484C683.5 709.43 683.504 709.367 683.539 709.316L686.676 704.695C686.688 704.676 686.695 704.656 686.703 704.629L695.605 648.402C695.621 648.324 695.688 648.266 695.766 648.266H716.07C716.152 648.266 716.219 648.324 716.23 648.402L725.223 704.633C725.227 704.656 725.234 704.676 725.246 704.695ZM702.727 688.727H708.496C708.543 688.727 708.586 688.707 708.617 688.672C708.648 688.637 708.664 688.594 708.656 688.547L705.773 662.094C705.766 662.012 705.695 661.949 705.613 661.949C705.527 661.949 705.461 662.012 705.449 662.094L702.566 688.547C702.562 688.594 702.574 688.637 702.605 688.672C702.637 688.707 702.68 688.727 702.727 688.727ZM701.059 635.742C702.402 635.742 703.48 635.902 704.297 636.223C705.113 636.547 705.859 636.883 706.531 637.23C707.203 637.582 707.844 637.918 708.457 638.238C709.07 638.559 709.816 638.723 710.691 638.723C711.859 638.723 712.633 638.398 713.012 637.758C713.348 637.188 713.535 636.711 713.574 636.328C713.582 636.242 713.652 636.18 713.734 636.18H717.098C717.141 636.18 717.18 636.195 717.211 636.23C717.242 636.262 717.258 636.301 717.258 636.344C717.25 637.398 717.164 638.438 716.996 639.465C716.82 640.547 716.484 641.523 715.988 642.398C715.492 643.273 714.809 643.988 713.93 644.543C713.055 645.098 711.945 645.375 710.602 645.375C709.262 645.375 708.164 645.215 707.32 644.895C706.473 644.574 705.73 644.238 705.086 643.887C704.445 643.539 703.816 643.203 703.203 642.883C702.59 642.559 701.848 642.398 700.969 642.398C699.801 642.398 699.027 642.719 698.648 643.363C698.312 643.93 698.125 644.406 698.086 644.793C698.078 644.875 698.008 644.938 697.926 644.938H694.566C694.52 644.938 694.48 644.922 694.449 644.891C694.418 644.859 694.402 644.82 694.402 644.773C694.41 643.723 694.5 642.68 694.664 641.656C694.84 640.574 695.176 639.598 695.672 638.723C696.168 637.844 696.855 637.129 697.73 636.574C698.605 636.02 699.715 635.742 701.059 635.742ZM758.945 648.266C761.398 648.266 763.148 648.863 764.199 650.062C765.25 651.258 765.777 653.055 765.777 655.449V702.387C765.777 704.781 765.25 706.578 764.199 707.773C763.148 708.973 761.398 709.57 758.945 709.57H736.965C734.512 709.57 732.762 708.973 731.711 707.773C730.656 706.578 730.133 704.781 730.133 702.387V655.449C730.133 653.055 730.656 651.258 731.711 650.062C732.762 648.863 734.512 648.266 736.965 648.266H758.945ZM751.766 661.84C751.766 660.848 751.516 660.031 751.02 659.391C750.523 658.746 749.781 658.426 748.785 658.426H747.121C746.129 658.426 745.387 658.746 744.891 659.391C744.395 660.031 744.145 660.848 744.145 661.84V695.996C744.145 696.988 744.395 697.805 744.891 698.449C745.387 699.09 746.129 699.41 747.121 699.41H748.785C749.781 699.41 750.523 699.09 751.02 698.449C751.516 697.805 751.766 696.988 751.766 695.996V661.84ZM226.66 459.254C246.637 480.934 266.406 499.285 286.652 514.254C291.25 517.652 294.82 520.656 296.848 524.09C298.867 527.512 299.926 531.289 299.926 535.535C299.926 542.043 299.926 548.566 299.926 555.074C299.926 561.598 299.926 568.105 299.926 574.633C299.926 578.859 298.887 581.727 296.848 583.312C294.785 584.918 291.371 585.23 286.598 583.867C277.414 581.246 268.285 578.285 259.133 575.137C259.082 575.117 259.027 575.125 258.984 575.156C258.941 575.188 258.918 575.234 258.918 575.289C258.918 582.758 258.918 590.227 258.918 597.676C258.918 605.207 258.918 612.734 258.918 620.266C258.918 620.293 258.922 620.316 258.934 620.34C260.723 624.023 262.512 627.629 264.301 631.152C264.328 631.203 264.324 631.258 264.293 631.309C264.266 631.359 264.215 631.387 264.156 631.387C251.535 631.387 238.969 631.387 226.453 631.387C226.398 631.387 226.352 631.359 226.32 631.316C226.289 631.27 226.285 631.219 226.305 631.164C228 626.73 229.801 622.379 231.602 618.125C231.609 618.105 231.613 618.086 231.613 618.062C231.613 594.77 231.613 571.477 231.613 548.188C231.613 524.91 231.613 501.617 231.613 478.32C231.613 478.305 231.613 478.289 231.609 478.277C229.836 472.086 228.062 465.762 226.387 459.406C226.367 459.332 226.398 459.258 226.465 459.223C226.531 459.188 226.609 459.199 226.66 459.254ZM272.621 534.742C272.621 531.961 271.895 529.25 270.625 526.613C269.305 523.863 267.336 521.516 264.746 519.691C262.891 518.383 261.031 517.066 259.172 515.746C259.121 515.711 259.059 515.707 259.004 515.734C258.949 515.762 258.918 515.816 258.918 515.879C258.918 521.867 258.918 527.84 258.918 533.809C258.918 539.867 258.918 545.91 258.918 551.953C258.918 552.016 258.949 552.07 259.008 552.098C260.922 553.035 262.828 553.961 264.746 554.887C267.332 556.137 269.34 556.188 270.625 554.973C271.93 553.738 272.621 551.727 272.621 548.949C272.621 544.219 272.621 539.488 272.621 534.742ZM346.703 604.043C346.059 601.367 345.086 599.211 343.898 597.59C342.738 596.004 340.699 594.926 337.887 594.395C337.836 594.387 337.793 594.398 337.754 594.43C337.715 594.461 337.695 594.504 337.695 594.555C337.695 599.48 337.695 604.402 337.695 609.324C337.695 614.312 337.695 619.285 337.695 624.254C337.695 624.289 337.703 624.324 337.727 624.352C339.48 626.645 341.285 628.906 343.09 631.121C343.129 631.172 343.137 631.234 343.109 631.293C343.082 631.352 343.027 631.387 342.965 631.387C330.336 631.387 317.762 631.387 305.184 631.387C305.125 631.387 305.07 631.355 305.043 631.301C305.012 631.25 305.016 631.188 305.047 631.137C306.77 628.457 308.539 625.828 310.309 623.246C310.328 623.219 310.34 623.188 310.34 623.152C310.34 608.828 310.34 594.48 310.34 580.156C310.34 565.805 310.34 551.477 310.34 537.125C310.34 537.102 310.332 537.078 310.32 537.055C308.562 533.516 306.805 529.926 305.141 526.305C305.113 526.242 305.125 526.168 305.18 526.121C305.23 526.07 305.305 526.062 305.367 526.094C325.512 536.82 345.676 545.984 365.914 553.418C370.676 555.168 374.094 556.98 376.109 558.992C378.141 561.016 379.188 563.43 379.188 566.312C379.188 570.316 379.188 574.32 379.188 578.324C379.188 582.312 379.188 586.336 379.188 590.32C379.188 595.523 376.238 598.363 370.344 598.801C370.289 598.805 370.246 598.828 370.215 598.875C370.188 598.918 370.184 598.973 370.203 599.02C372.012 603.609 373.914 608.156 375.734 612.57C377.551 616.98 379.5 621.332 381.383 625.617C381.395 625.645 381.41 625.664 381.43 625.68C383.773 627.52 386.113 629.328 388.504 631.094C388.559 631.137 388.582 631.207 388.559 631.273C388.535 631.344 388.477 631.387 388.406 631.387C375.336 631.387 362.266 631.387 349.25 631.387C349.188 631.387 349.137 631.355 349.109 631.305C349.078 631.254 349.078 631.195 349.109 631.145C350.293 629.035 351.477 626.93 352.66 624.852C352.684 624.812 352.688 624.77 352.676 624.727C350.688 617.965 348.695 611.066 346.707 604.047V604.043H346.703ZM351.832 568.434C351.832 566.621 351.188 564.91 349.891 563.273C348.598 561.648 346.598 560.379 344.008 559.512C341.973 558.832 339.941 558.145 337.91 557.414C337.859 557.395 337.809 557.402 337.762 557.434C337.719 557.465 337.695 557.512 337.695 557.566C337.695 561.219 337.695 564.852 337.695 568.504C337.695 572.172 337.695 575.859 337.695 579.527C337.695 579.602 337.746 579.668 337.816 579.684C339.879 580.191 341.945 580.695 344.008 581.172C346.598 581.773 348.59 581.633 349.891 580.758C351.18 579.891 351.832 578.551 351.832 576.738C351.832 573.977 351.832 571.195 351.832 568.434ZM449.762 571.594C454.555 572.164 457.957 572.969 459.961 574.305C462.004 575.66 463.035 577.445 463.035 579.742C463.035 587.215 463.035 594.672 463.035 602.145C463.035 609.602 463.035 617.078 463.035 624.551C463.035 626.828 462.012 628.539 459.961 629.676C457.91 630.816 454.512 631.387 449.707 631.387C435.41 631.387 421.113 631.387 406.867 631.387C402.066 631.387 398.656 630.742 396.613 629.383C394.555 628.016 393.539 625.949 393.539 623.238C393.539 614.332 393.539 605.441 393.539 596.535C393.539 587.648 393.539 578.758 393.539 569.852C393.539 567.121 394.562 565.289 396.613 564.414C398.719 563.512 402.09 563.742 406.922 564.723C421.141 567.609 435.453 569.887 449.762 571.594ZM435.734 583.469C435.734 582.469 435.254 581.582 434.277 580.828C433.309 580.082 431.848 579.602 429.906 579.379C428.824 579.254 427.746 579.113 426.668 578.945C424.727 578.648 423.27 578.758 422.297 579.273C421.328 579.793 420.84 580.57 420.84 581.605C420.84 587.543 420.84 593.5 420.84 599.418C420.84 605.355 420.84 611.293 420.84 617.23C420.84 618.266 421.328 619.129 422.297 619.84C423.27 620.547 424.727 620.91 426.668 620.977C427.746 621.016 428.828 621.039 429.906 621.062C431.848 621.109 433.301 620.816 434.277 620.184C435.242 619.555 435.734 618.77 435.734 617.766C435.734 612.055 435.734 606.324 435.734 600.609C435.734 594.895 435.734 589.184 435.734 583.469ZM498.215 618.734C498.215 619.664 498.707 620.418 499.672 621.012C500.648 621.609 502.102 621.906 504.043 621.891C504.527 621.887 505.016 621.898 505.555 621.891C507.496 621.879 508.949 621.574 509.926 620.961C510.891 620.352 511.383 619.598 511.383 618.664C511.383 611.969 511.383 605.27 511.383 598.574C511.383 591.902 511.383 585.246 511.383 578.559C511.383 578.508 511.359 578.465 511.32 578.434C509.617 577.051 507.91 575.672 506.297 574.277C506.242 574.234 506.227 574.168 506.25 574.102C506.27 574.039 506.328 573.996 506.395 573.992C518.883 573.496 531.375 572.531 543.914 570.93C543.984 570.922 544.051 570.957 544.082 571.023C544.113 571.086 544.098 571.16 544.047 571.207C542.246 572.938 540.488 574.645 538.734 576.359C538.699 576.395 538.684 576.434 538.684 576.477C538.684 584.445 538.684 592.434 538.684 600.402C538.684 608.395 538.684 616.402 538.684 624.395C538.684 626.727 537.656 628.48 535.609 629.66C533.609 630.812 530.16 631.387 525.41 631.387C512.027 631.387 498.648 631.387 485.266 631.387C480.465 631.387 477.062 630.84 475.016 629.711C472.961 628.578 471.938 626.863 471.938 624.602C471.938 620.668 471.938 616.73 471.938 612.797C471.938 608.934 471.938 605.07 471.938 601.207C471.938 601.152 471.961 601.105 472.004 601.074C472.047 601.043 472.098 601.035 472.145 601.051C480.777 603.57 489.41 605.922 498.094 608.258C498.168 608.277 498.215 608.34 498.215 608.414C498.215 611.859 498.215 615.305 498.215 618.734ZM580.258 591.859C585.207 591.027 590.207 590.156 595.207 589.289C595.223 589.289 595.238 589.285 595.25 589.277C598.457 587.762 601.668 586.148 604.922 584.52C604.977 584.492 605.031 584.496 605.082 584.527C605.129 584.555 605.16 584.605 605.16 584.664C605.16 590.625 605.16 596.602 605.16 602.578C605.16 602.625 605.141 602.668 605.102 602.699C605.066 602.73 605.02 602.746 604.973 602.738C601.699 602.234 598.477 601.758 595.254 601.27C595.238 601.266 595.223 601.266 595.207 601.27C590.191 601.883 585.176 602.516 580.211 603.113C580.129 603.121 580.066 603.191 580.066 603.273C580.066 606.059 580.066 608.855 580.066 611.641C580.066 614.43 580.066 617.203 580.066 619.996C580.066 620.043 580.086 620.082 580.117 620.113C580.152 620.145 580.191 620.16 580.238 620.156C585.57 619.902 590.898 619.629 596.23 619.375C596.246 619.371 596.262 619.371 596.277 619.363C602.672 617.027 609.066 614.574 615.512 611.953C615.562 611.934 615.617 611.938 615.664 611.969C615.707 612 615.734 612.047 615.734 612.105C615.734 618.477 615.734 624.852 615.734 631.223C615.734 631.312 615.66 631.387 615.574 631.387C592.941 631.387 570.312 631.387 547.684 631.387C547.613 631.387 547.555 631.344 547.531 631.281C547.504 631.219 547.523 631.148 547.574 631.102C549.238 629.59 550.949 628.059 552.66 626.496C552.695 626.465 552.711 626.426 552.711 626.379C552.711 617.734 552.711 609.113 552.711 600.469C552.711 591.832 552.711 583.195 552.711 574.574C552.711 574.523 552.688 574.477 552.645 574.445C550.934 573.203 549.219 571.977 547.594 570.707C547.543 570.668 547.523 570.605 547.539 570.543C547.551 570.477 547.602 570.434 547.664 570.418C570.297 565.953 592.934 559.836 615.57 551.957C615.621 551.938 615.676 551.945 615.719 551.977C615.762 552.012 615.785 552.055 615.785 552.109C615.734 558.504 615.734 564.879 615.734 571.27C615.734 571.316 615.719 571.355 615.684 571.387C615.652 571.418 615.613 571.434 615.566 571.434C609.102 571.227 602.691 571.004 596.277 570.867C596.262 570.867 596.25 570.871 596.234 570.875C590.887 572.207 585.539 573.543 580.191 574.824C580.117 574.844 580.066 574.906 580.066 574.984C580.066 577.773 580.066 580.578 580.066 583.367C580.066 586.148 580.066 588.918 580.066 591.699C580.066 591.75 580.086 591.793 580.125 591.824C580.164 591.855 580.207 591.867 580.258 591.859ZM689.145 544.535C682.746 543.602 676.348 542.836 669.949 542.152C669.922 542.148 669.895 542.152 669.867 542.164C669.43 542.367 668.992 542.586 668.594 542.777C668.539 542.805 668.504 542.859 668.504 542.922C668.504 556.266 668.504 569.605 668.504 582.934C668.504 596.277 668.504 609.621 668.504 622.98C668.504 623.016 668.512 623.043 668.531 623.074C670.301 625.707 672.074 628.406 673.844 631.137C673.879 631.188 673.879 631.246 673.852 631.301C673.82 631.355 673.77 631.387 673.707 631.387C661.184 631.387 648.711 631.387 636.238 631.387C636.176 631.387 636.121 631.352 636.094 631.297C636.066 631.238 636.07 631.176 636.109 631.125C637.816 628.859 639.574 626.559 641.332 624.195C641.352 624.168 641.363 624.137 641.363 624.102C641.363 612.555 641.363 601.008 641.363 589.457C641.363 577.973 641.363 566.488 641.363 555.004C641.363 554.949 641.336 554.898 641.293 554.867C641.246 554.836 641.191 554.832 641.141 554.852C640.809 554.98 640.504 555.098 640.199 555.219C640.184 555.227 640.168 555.234 640.156 555.246C633.668 560.777 627.23 565.969 620.797 570.812C620.746 570.848 620.684 570.855 620.625 570.828C620.57 570.801 620.535 570.746 620.535 570.684C620.535 567.27 620.535 563.875 620.535 560.477C620.535 556.992 620.535 553.52 620.59 550.035C620.59 549.969 620.625 549.914 620.684 549.891C643.5 539.801 666.32 527.922 689.137 514.414C689.188 514.387 689.25 514.387 689.301 514.414C689.352 514.445 689.383 514.496 689.383 514.559C689.332 519.52 689.332 524.465 689.332 529.426C689.332 534.402 689.332 539.398 689.332 544.375C689.332 544.426 689.312 544.465 689.273 544.5C689.238 544.531 689.191 544.543 689.145 544.535ZM752.461 469.41C757.258 465.672 760.672 464.512 762.66 466.215C764.719 467.98 765.734 472.258 765.734 479.004C765.734 501.047 765.734 523.074 765.734 545.098C765.734 567.121 765.734 589.148 765.734 611.172C765.734 617.922 764.727 623.027 762.66 626.434C760.629 629.777 757.156 631.387 752.406 631.387C738.109 631.387 723.809 631.387 709.512 631.387C704.711 631.387 701.312 630.176 699.258 627.797C697.215 625.426 696.184 621.926 696.184 617.18C696.184 601.695 696.184 586.195 696.184 570.715C696.184 555.215 696.184 539.73 696.184 524.23C696.184 519.48 697.199 515.266 699.258 511.559C701.355 507.793 704.824 504.402 709.566 501.098C723.926 491.094 738.211 480.5 752.461 469.41ZM738.379 513.719C738.379 511.266 737.898 509.551 736.922 508.574C735.953 507.602 734.492 507.742 732.551 508.969C731.469 509.656 730.402 510.352 729.312 511.008C727.383 512.164 725.938 513.777 724.996 515.805C724.047 517.852 723.539 519.984 723.539 522.262C723.539 535.277 723.539 548.309 723.539 561.305C723.539 574.32 723.539 587.352 723.539 600.352C723.539 602.629 724.051 604.406 724.996 605.77C725.941 607.133 727.371 607.711 729.312 607.48C730.395 607.352 731.473 607.219 732.551 607.082C734.492 606.84 735.957 605.879 736.922 604.184C737.898 602.461 738.379 600.387 738.379 597.934C738.379 583.902 738.379 569.867 738.379 555.836C738.379 541.801 738.379 527.77 738.379 513.719Z" fill="#FFE500"/>
<path fill-rule="evenodd" clip-rule="evenodd" d="M226.219 726.449C229.727 726.449 233.285 726.449 236.902 726.449C236.688 727.699 236.469 728.945 236.254 730.191C236.793 733.469 237.332 736.742 237.871 740C238.41 743.246 238.953 746.496 239.492 749.734C239.492 746.473 239.492 743.207 239.492 739.949C239.492 736.691 239.492 733.43 239.492 730.168C239.008 728.938 238.52 727.695 238.09 726.449C241.219 726.449 244.402 726.449 247.586 726.449C247.102 727.672 246.613 728.895 246.129 730.113C246.129 737.137 246.129 744.164 246.129 751.18C246.129 758.195 246.184 765.215 246.184 772.23C243.809 772.461 241.434 772.688 239.113 772.914C238.305 768.504 237.414 764.086 236.633 759.648C235.848 755.191 235.066 750.715 234.312 746.227C234.312 750.129 234.312 754.027 234.312 757.926C234.312 761.828 234.367 765.723 234.367 769.625C234.797 770.84 235.23 772.039 235.715 773.238C232.531 773.547 229.348 773.852 226.219 774.152C226.648 772.852 227.137 771.535 227.621 770.223C227.621 763.562 227.566 756.902 227.566 750.238C227.566 743.582 227.566 736.922 227.566 730.258C227.082 728.996 226.598 727.723 226.219 726.449ZM273.59 726.449C274.887 726.449 275.75 726.875 276.289 727.711C276.832 728.547 277.098 729.801 277.098 731.473C277.098 736.941 277.098 742.406 277.098 747.867C277.098 753.336 277.113 758.801 277.152 764.266C277.164 765.938 276.883 767.215 276.344 768.105C275.805 768.992 274.941 769.484 273.645 769.605C269.867 769.961 266.09 770.324 262.367 770.676C261.074 770.797 260.211 770.453 259.672 769.637C259.133 768.816 258.875 767.535 258.863 765.797C258.82 760.109 258.809 754.422 258.809 748.738C258.809 743.051 258.809 737.363 258.809 731.676C258.809 729.934 259.078 728.629 259.617 727.758C260.156 726.891 261.02 726.449 262.316 726.449C266.039 726.449 269.816 726.449 273.59 726.449ZM269.922 736.09C269.922 735.387 269.781 734.797 269.543 734.355C269.297 733.891 268.898 733.684 268.359 733.691C268.035 733.695 267.766 733.703 267.496 733.707C267.012 733.711 266.633 733.945 266.363 734.41C266.094 734.875 265.984 735.461 265.984 736.172C265.984 740.25 265.984 744.324 265.984 748.398C265.984 752.473 265.992 756.547 266.039 760.621C266.047 761.332 266.148 761.902 266.414 762.344C266.688 762.785 267.062 762.984 267.547 762.941C267.82 762.922 268.09 762.895 268.414 762.871C268.949 762.832 269.352 762.586 269.598 762.098C269.836 761.637 269.984 761.031 269.977 760.324C269.93 756.289 269.922 752.25 269.922 748.207C269.922 744.172 269.922 740.133 269.922 736.09ZM315.57 742.848C316.863 742.797 318.215 742.746 319.562 742.699C320.426 742.168 321.289 741.633 322.207 741.105C322.207 744.238 322.207 747.371 322.207 750.504C321.289 750.059 320.426 749.605 319.562 749.148C318.215 749.219 316.863 749.285 315.57 749.355C315.57 751.004 315.57 752.648 315.57 754.293C315.57 755.941 315.625 757.586 315.625 759.234C317.027 759.125 318.43 759.023 319.887 758.918C321.559 757.758 323.285 756.602 324.957 755.457C325.012 758.605 325.012 761.754 325.012 764.902C318.969 765.441 312.98 765.977 306.992 766.512C307.422 765.41 307.906 764.309 308.395 763.199C308.395 757.605 308.34 752.016 308.34 746.426C308.34 740.832 308.34 735.242 308.34 729.648C307.855 728.586 307.367 727.523 306.938 726.449C312.926 726.449 318.914 726.449 324.957 726.449C324.957 729.609 324.957 732.758 324.957 735.906C323.23 734.914 321.504 733.914 319.832 732.906C318.375 732.926 316.973 732.949 315.57 732.965C315.57 734.613 315.57 736.258 315.57 737.91C315.57 739.555 315.57 741.199 315.57 742.848ZM347.297 734.555C347.297 733.965 347.168 733.488 346.918 733.094C346.684 732.727 346.27 732.535 345.785 732.539C345.625 732.539 345.461 732.543 345.352 732.543C344.867 732.547 344.488 732.742 344.219 733.133C343.949 733.527 343.844 734.016 343.844 734.613C343.844 735.426 343.844 736.23 343.844 737.035C343.844 737.914 343.949 738.559 344.164 738.973C344.383 739.387 344.812 739.781 345.406 740.145C347.727 741.578 350.094 743.004 352.477 744.383C353.277 744.844 353.824 745.43 354.148 746.172C354.473 746.91 354.633 747.832 354.633 748.922C354.633 750.48 354.605 752.031 354.633 753.578C354.66 755.129 354.688 756.684 354.688 758.234C354.688 759.641 354.418 760.711 353.879 761.461C353.34 762.203 352.422 762.621 351.125 762.723C347.402 763.02 343.734 763.312 340.066 763.625C338.824 763.73 337.902 763.453 337.367 762.766C336.824 762.074 336.559 761 336.559 759.539C336.559 757.527 336.531 755.52 336.504 753.516C336.477 751.516 336.504 749.5 336.504 747.492C338.824 748.875 341.145 750.234 343.465 751.586C343.465 752.781 343.484 753.973 343.52 755.168C343.535 755.762 343.648 756.23 343.895 756.613C344.133 756.977 344.543 757.148 345.031 757.117C345.352 757.102 345.676 757.074 346 757.051C346.484 757.02 346.867 756.809 347.133 756.41C347.406 756.004 347.535 755.512 347.512 754.918C347.48 754.137 347.457 753.355 347.457 752.566C347.457 751.695 347.348 751.059 347.133 750.656C346.918 750.25 346.492 749.859 345.895 749.512C343.523 748.133 341.148 746.754 338.77 745.359C337.965 744.887 337.398 744.285 337.098 743.504C336.805 742.742 336.668 741.777 336.668 740.633C336.668 739.008 336.668 737.371 336.668 735.742C336.668 734.113 336.668 732.477 336.668 730.844C336.668 729.379 336.934 728.281 337.477 727.547C338.012 726.816 338.879 726.449 340.172 726.449C343.68 726.449 347.188 726.449 350.75 726.449C351.988 726.449 352.91 726.809 353.445 727.512C353.988 728.215 354.258 729.266 354.258 730.676C354.258 732.559 354.258 734.438 354.258 736.312C354.258 738.191 354.258 740.066 354.258 741.945C351.938 740.574 349.617 739.191 347.297 737.793C347.297 736.719 347.297 735.637 347.297 734.555ZM365.531 726.449C370.82 726.449 376.16 726.449 381.504 726.449C382.746 726.449 383.66 726.785 384.203 727.449C384.742 728.109 385.012 729.098 385.012 730.426C385.012 732.453 385.012 734.484 385.012 736.516C385.012 738.547 385.012 740.578 385.012 742.613C385.012 743.934 384.742 744.934 384.203 745.617C383.66 746.301 382.746 746.664 381.504 746.711C379.078 746.801 376.648 746.887 374.219 746.988C374.219 748.863 374.191 750.742 374.219 752.617C374.246 754.488 374.273 756.363 374.273 758.246C374.707 759.137 375.191 760.02 375.676 760.902C372.277 761.145 368.934 761.383 365.586 761.621C366.07 760.656 366.559 759.684 367.043 758.715C367.043 753.809 366.988 748.898 366.988 743.992C366.988 739.082 366.988 734.168 366.988 729.262C366.504 728.324 366.02 727.391 365.531 726.449ZM377.781 734.742C377.781 733.988 377.637 733.355 377.297 732.883C376.934 732.383 376.434 732.156 375.73 732.164C375.191 732.172 374.707 732.176 374.219 732.18C374.219 733.695 374.219 735.211 374.219 736.723C374.219 738.234 374.219 739.75 374.219 741.262C374.707 741.246 375.191 741.23 375.73 741.215C376.43 741.191 376.934 740.949 377.297 740.438C377.637 739.953 377.781 739.316 377.781 738.562C377.781 737.289 377.781 736.016 377.781 734.742ZM411.504 726.449C412.746 726.449 413.66 726.77 414.199 727.406C414.742 728.039 415.012 728.984 415.012 730.246C415.012 734.387 415.012 738.52 415.012 742.656C415.012 746.785 415.023 750.922 415.062 755.055C415.078 756.32 414.797 757.277 414.254 757.934C413.719 758.59 412.797 758.938 411.559 758.988C407.781 759.145 404.004 759.293 400.227 759.477C398.984 759.535 398.066 759.27 397.527 758.648C396.988 758.031 396.73 757.07 396.719 755.773C396.68 751.539 396.664 747.301 396.664 743.062C396.664 738.824 396.664 734.586 396.664 730.344C396.664 729.047 396.934 728.074 397.473 727.426C398.012 726.777 398.934 726.449 400.172 726.449C403.949 726.449 407.727 726.449 411.504 726.449ZM407.781 733.691C407.781 733.164 407.672 732.73 407.402 732.391C407.133 732.047 406.754 731.883 406.27 731.883C405.945 731.887 405.676 731.887 405.406 731.891C404.922 731.891 404.508 732.078 404.273 732.414C404.023 732.77 403.895 733.195 403.895 733.73C403.895 736.777 403.895 739.832 403.895 742.879C403.895 745.926 403.902 748.98 403.949 752.027C403.957 752.559 404.074 752.98 404.328 753.332C404.562 753.656 404.977 753.824 405.461 753.809C405.73 753.801 406 753.793 406.324 753.781C406.809 753.762 407.188 753.574 407.457 753.227C407.727 752.875 407.844 752.434 407.836 751.906C407.789 748.871 407.781 745.836 407.781 742.805C407.781 739.77 407.781 736.73 407.781 733.691ZM437.293 748.051C437.117 747.086 436.859 746.34 436.539 745.812C436.215 745.285 435.676 745.027 434.922 745.031C434.922 746.824 434.895 748.613 434.922 750.406C434.945 752.199 434.973 753.988 434.973 755.781C435.461 756.621 435.945 757.461 436.43 758.297C433.031 758.363 429.633 758.434 426.289 758.508C426.773 757.645 427.258 756.773 427.746 755.91C427.746 751.434 427.691 746.949 427.691 742.465C427.691 737.98 427.691 733.5 427.691 729.012C427.203 728.164 426.719 727.309 426.234 726.449C431.574 726.449 436.918 726.449 442.312 726.449C443.605 726.449 444.473 726.766 445.012 727.383C445.551 728.004 445.82 728.93 445.82 730.172C445.82 731.895 445.82 733.617 445.82 735.34C445.82 737.055 445.82 738.781 445.82 740.5C445.82 742.766 445.062 744.156 443.445 744.684C443.93 746.52 444.391 748.359 444.902 750.184C445.414 752.016 445.926 753.84 446.465 755.668C447.113 756.492 447.762 757.312 448.465 758.129C444.957 758.172 441.449 758.215 437.941 758.27C438.266 757.418 438.59 756.566 438.914 755.711C438.375 753.16 437.766 750.609 437.293 748.051ZM438.645 734.137C438.645 733.438 438.465 732.875 438.105 732.41C437.762 731.969 437.238 731.73 436.594 731.73C436 731.734 435.461 731.738 434.922 731.738C434.922 733.07 434.922 734.406 434.922 735.742C434.922 737.078 434.922 738.414 434.922 739.75C435.461 739.746 436 739.742 436.594 739.734C437.238 739.73 437.766 739.484 438.105 739.043C438.465 738.574 438.645 738.008 438.645 737.312C438.645 736.254 438.645 735.195 438.645 734.137ZM475.766 734.609C474.039 733.516 472.312 732.422 470.641 731.324C470.531 731.324 470.422 731.324 470.316 731.324C470.316 735.352 470.316 739.379 470.316 743.402C470.316 747.43 470.371 751.457 470.371 755.48C470.801 756.328 471.285 757.168 471.773 757.996C468.426 758.008 465.082 758.016 461.734 758.035C462.223 757.191 462.707 756.352 463.195 755.508C463.195 751.477 463.141 747.445 463.141 743.418C463.141 739.387 463.141 735.363 463.141 731.324C463.031 731.324 462.922 731.324 462.816 731.324C461.09 732.43 459.363 733.531 457.637 734.625C457.637 733.262 457.637 731.902 457.637 730.539C457.637 729.18 457.637 727.816 457.637 726.449C463.68 726.449 469.723 726.449 475.766 726.449C475.766 727.809 475.766 729.168 475.766 730.527C475.766 731.891 475.766 733.25 475.766 734.609ZM494.434 739.605C495.727 739.605 497.078 739.602 498.426 739.602C499.289 739.199 500.152 738.797 501.07 738.387C501.07 740.941 501.07 743.496 501.07 746.043C500.152 745.641 499.289 745.234 498.426 744.824C497.078 744.824 495.727 744.832 494.434 744.832C494.434 746.152 494.434 747.473 494.434 748.793C494.434 750.117 494.488 751.434 494.488 752.754C495.891 752.754 497.293 752.754 498.75 752.754C500.422 751.914 502.148 751.07 503.82 750.23C503.875 752.812 503.875 755.391 503.875 757.973C497.832 757.973 491.844 757.977 485.855 757.977C486.285 757.145 486.773 756.305 487.258 755.457C487.258 751.047 487.203 746.633 487.203 742.223C487.203 737.805 487.203 733.391 487.203 728.973C486.719 728.137 486.23 727.297 485.801 726.449C491.789 726.449 497.777 726.449 503.82 726.449C503.82 729.035 503.82 731.621 503.82 734.203C502.094 733.363 500.367 732.523 498.695 731.68C497.238 731.68 495.836 731.68 494.434 731.68C494.434 733 494.434 734.32 494.434 735.645C494.434 736.965 494.434 738.285 494.434 739.605ZM541.754 739.66C543.047 739.664 544.398 739.672 545.746 739.68C546.609 739.277 547.473 738.871 548.391 738.469C548.391 741.039 548.391 743.609 548.391 746.176C547.473 745.762 546.609 745.344 545.746 744.93C544.398 744.926 543.047 744.91 541.754 744.906C541.754 746.234 541.754 747.559 541.754 748.887C541.754 750.211 541.809 751.539 541.809 752.863C543.211 752.875 544.613 752.891 546.07 752.906C547.797 752.082 549.523 751.246 551.195 750.418C551.25 753.02 551.25 755.621 551.25 758.219C545.207 758.148 539.164 758.078 533.176 758.043C533.66 757.211 534.145 756.371 534.629 755.531C534.629 751.109 534.578 746.68 534.578 742.258C534.578 737.832 534.578 733.41 534.578 728.98C534.09 728.141 533.605 727.297 533.121 726.449C539.109 726.449 545.152 726.449 551.195 726.449C551.195 729.059 551.195 731.66 551.195 734.266C549.469 733.41 547.742 732.562 546.016 731.711C544.559 731.707 543.156 731.703 541.754 731.703C541.754 733.027 541.754 734.355 541.754 735.68C541.754 737.008 541.754 738.332 541.754 739.66ZM580.387 726.449C583.945 726.449 587.562 726.449 591.176 726.449C590.961 727.332 590.746 728.215 590.531 729.09C591.07 731.41 591.609 733.734 592.148 736.062C592.688 738.391 593.227 740.727 593.766 743.066C593.766 740.742 593.766 738.414 593.766 736.086C593.766 733.762 593.766 731.43 593.766 729.102C593.281 728.219 592.797 727.336 592.309 726.449C595.438 726.449 598.621 726.449 601.805 726.449C601.32 727.348 600.836 728.238 600.402 729.133C600.402 734.27 600.402 739.402 600.402 744.535C600.402 749.668 600.457 754.801 600.457 759.93C598.082 759.805 595.707 759.68 593.391 759.555C592.578 756.332 591.691 753.113 590.906 749.898C590.129 746.703 589.289 743.496 588.531 740.309C588.531 743.035 588.531 745.77 588.531 748.5C588.531 751.23 588.586 753.961 588.586 756.695C589.02 757.59 589.504 758.484 589.988 759.379C586.805 759.246 583.621 759.113 580.441 758.984C580.926 758.141 581.41 757.289 581.895 756.445C581.895 751.879 581.844 747.316 581.844 742.754C581.844 738.191 581.844 733.625 581.844 729.059C581.355 728.191 580.871 727.324 580.387 726.449ZM632.508 759.223C633.047 760.215 633.586 761.199 634.125 762.188C630.562 761.914 627.059 761.664 623.551 761.418C623.98 760.516 624.414 759.613 624.898 758.711C624.793 757.621 624.684 756.531 624.574 755.434C623.117 755.348 621.715 755.27 620.312 755.184C620.203 756.254 620.098 757.324 619.988 758.387C620.422 759.348 620.852 760.301 621.285 761.254C617.832 761.008 614.379 760.777 610.98 760.562C611.52 759.691 612.113 758.816 612.703 757.938C613.406 752.73 614.164 747.5 614.918 742.266C615.676 737.008 616.43 731.742 617.238 726.449C620.746 726.449 624.25 726.449 627.812 726.449C628.57 731.871 629.324 737.309 630.078 742.754C630.836 748.223 631.645 753.711 632.508 759.223ZM620.797 749.406C621.824 749.457 622.848 749.5 623.93 749.555C623.656 746.867 623.336 744.18 623.117 741.504C622.902 738.836 622.578 736.152 622.363 733.48C622.094 736.145 621.77 738.805 621.555 741.461C621.34 744.109 621.016 746.758 620.797 749.406ZM666.879 764.891C666.121 758.941 665.312 753.016 664.559 747.109C663.801 741.219 663.047 735.352 662.289 729.5C661.75 728.484 661.211 727.465 660.672 726.449C664.18 726.449 667.688 726.449 671.246 726.449C670.762 727.492 670.332 728.52 669.898 729.551C670.223 734.012 670.656 738.48 670.977 742.949C671.301 747.43 671.734 751.922 672.164 756.418C672.434 751.969 672.812 747.508 673.137 743.035C673.461 738.559 673.891 734.078 674.27 729.582C673.836 728.539 673.406 727.496 673.027 726.449C676.426 726.449 679.879 726.449 683.332 726.449C682.738 727.52 682.148 728.578 681.605 729.633C680.852 735.719 680.043 741.777 679.34 747.82C678.641 753.84 677.938 759.836 677.238 765.816C673.785 765.508 670.332 765.199 666.879 764.891ZM702.598 768.133C699.195 767.816 695.852 767.508 692.508 767.199C692.992 766.164 693.477 765.117 693.961 764.07C693.961 758.344 693.91 752.621 693.91 746.895C693.91 741.176 693.91 735.453 693.91 729.723C693.422 728.637 692.938 727.543 692.453 726.449C695.797 726.449 699.145 726.449 702.543 726.449C702.055 727.566 701.57 728.676 701.141 729.773C701.141 735.602 701.141 741.414 701.141 747.234C701.141 753.051 701.191 758.867 701.191 764.684C701.625 765.836 702.109 766.977 702.598 768.133ZM712.738 726.449C718.082 726.449 723.422 726.449 728.82 726.449C730.059 726.449 730.98 726.887 731.516 727.754C732.059 728.625 732.324 729.93 732.324 731.668C732.324 737.348 732.324 743.023 732.324 748.699C732.324 754.375 732.34 760.051 732.379 765.73C732.391 767.469 732.113 768.75 731.57 769.57C731.031 770.383 730.113 770.723 728.871 770.605C723.477 770.094 718.137 769.59 712.793 769.082C713.277 768 713.766 766.902 714.25 765.805C714.25 759.82 714.195 753.832 714.195 747.84C714.195 741.855 714.195 735.867 714.195 729.875C713.711 728.734 713.227 727.59 712.738 726.449ZM725.148 737.031C725.148 736.07 724.934 735.277 724.609 734.645C724.285 734.012 723.746 733.695 723.047 733.684C722.453 733.672 721.91 733.664 721.371 733.66C721.371 738.5 721.371 743.344 721.371 748.18C721.371 753.02 721.371 757.863 721.426 762.699C721.965 762.742 722.504 762.793 723.098 762.836C723.801 762.891 724.34 762.625 724.664 762.023C724.988 761.422 725.16 760.645 725.148 759.684C725.105 755.91 725.148 752.133 725.148 748.359C725.148 744.586 725.148 740.809 725.148 737.031ZM764.105 770.195C764.645 771.516 765.184 772.832 765.777 774.152C762.219 773.809 758.656 773.465 755.148 773.129C755.582 771.926 756.012 770.723 756.5 769.52C756.391 768.066 756.281 766.605 756.227 765.152C754.77 765.031 753.316 764.918 751.91 764.805C751.805 766.234 751.695 767.66 751.586 769.082C752.02 770.359 752.453 771.633 752.938 772.914C749.484 772.578 746.031 772.25 742.633 771.922C743.172 770.766 743.711 769.602 744.305 768.438C745.004 761.496 745.762 754.535 746.516 747.551C747.273 740.543 748.027 733.512 748.836 726.449C752.344 726.449 755.852 726.449 759.41 726.449C760.168 733.688 760.922 740.941 761.676 748.223C762.434 755.516 763.242 762.844 764.105 770.195ZM752.398 757.09C753.422 757.156 754.5 757.227 755.582 757.293C755.312 753.707 754.988 750.125 754.77 746.551C754.555 742.98 754.23 739.406 754.016 735.84C753.746 739.391 753.477 742.945 753.207 746.484C752.938 750.023 752.668 753.559 752.398 757.09Z" fill="#FFE500"/>
<path fill-rule="evenodd" clip-rule="evenodd" d="M432.793 389.691C428.645 386.078 424.816 382.242 424.293 376.18C424.277 376.012 424.16 375.879 423.996 375.84C423.832 375.801 423.668 375.867 423.578 376.012C422.637 377.543 422.168 378.969 421.793 381.465C421.766 381.648 421.617 381.781 421.43 381.789C421.246 381.801 421.082 381.68 421.039 381.504C416.84 365.379 428.176 347.664 442.504 340.531C442.633 340.469 442.77 340.477 442.891 340.555C443.008 340.633 443.07 340.762 443.059 340.902C442.891 343.656 445.121 344.691 446.988 345.953C447.086 346.02 447.145 346.113 447.156 346.227C447.172 346.34 447.141 346.445 447.062 346.531C446.371 347.305 445.434 347.625 444.461 348.125C444.301 348.207 444.219 348.383 444.262 348.559C444.301 348.734 444.453 348.852 444.637 348.852C446.75 348.852 448.738 348.852 450.812 348.852C450.98 348.852 451.121 348.75 451.176 348.59C451.23 348.43 451.176 348.262 451.043 348.16C449.508 347 448.359 345.555 448.203 343.5C448.031 341.211 448.953 339.516 451.043 337.855C451.184 337.746 451.375 337.742 451.516 337.852C451.66 337.961 451.707 338.148 451.637 338.312C450.355 341.289 449.684 343.832 452.137 346.082C455.758 349.406 458.996 346.785 462.809 345.293C462.977 345.227 463.164 345.281 463.266 345.434C463.371 345.586 463.355 345.781 463.23 345.914C458.531 350.922 452.949 352.914 447.016 354.02C446.82 354.055 446.688 354.23 446.699 354.426C446.715 354.621 446.871 354.777 447.066 354.785C453.785 355.09 460.277 354.176 466.309 349.781C466.445 349.68 466.625 349.68 466.762 349.777C466.898 349.879 466.953 350.047 466.902 350.207C465.715 353.906 464.133 357.051 461.941 359.852C461.824 360 461.828 360.199 461.949 360.34C462.07 360.484 462.27 360.52 462.434 360.426C465.957 358.445 468.41 355.355 470.512 351.152C470.598 350.984 470.785 350.902 470.965 350.953C471.145 351.004 471.258 351.176 471.242 351.359C470.398 360.273 468.023 368.402 468.879 377.508C468.898 377.703 469.055 377.848 469.254 377.855C469.449 377.863 469.617 377.723 469.645 377.527C470.965 368.699 473.27 361 476.234 353.547C479.344 345.742 481.965 337.773 482.48 329.477C482.785 324.594 481.766 319.469 479.453 314.984C479.383 314.848 479.25 314.77 479.098 314.777C478.945 314.781 478.816 314.867 478.754 315.008C475.578 322.289 471.102 322.984 461.645 317.465C461.492 317.375 461.305 317.398 461.18 317.523C461.051 317.648 461.027 317.836 461.117 317.988C461.512 318.676 462.355 319.113 462.59 320C462.629 320.141 462.586 320.285 462.477 320.383C462.371 320.48 462.227 320.512 462.086 320.461C458.863 319.305 455.781 317.844 452.547 317.301C450.879 317.023 449.168 316.984 447.438 317.066C447.242 317.074 447.082 317.227 447.07 317.426C447.059 317.621 447.191 317.793 447.387 317.828C453.059 318.879 457.996 322.09 463.184 324.523C466.949 326.289 470.738 326.609 474.641 325.66C474.797 325.621 474.953 325.68 475.047 325.812C475.141 325.949 475.141 326.117 475.047 326.25C472.5 329.992 468.887 330.418 462.727 327.969C459.43 326.66 456.031 325.605 452.66 324.496C452.449 324.426 452.215 324.426 451.867 324.457C451.684 324.473 451.539 324.613 451.516 324.797C451.496 324.98 451.602 325.148 451.781 325.207C458.031 327.266 462.441 331.02 467.555 333.441C470.203 334.695 472.773 336.012 475.805 334.094C475.961 333.996 476.152 334.016 476.281 334.141C476.41 334.266 476.438 334.457 476.344 334.613C474.016 338.586 471.781 339.363 467.93 338.016C463.84 336.59 459.828 334.938 455.832 333.262C448.785 330.309 442.219 331.738 436.012 335.508C433.199 337.215 431.191 339.676 430.82 343.398C430.805 343.555 430.703 343.68 430.555 343.727C430.406 343.777 430.25 343.734 430.148 343.617C427.133 340.211 428.852 336.758 430.059 333.355C430.102 333.23 430.082 333.105 430.008 333C429.93 332.895 429.816 332.84 429.688 332.84C427.809 332.883 427.406 334.609 426.441 335.594C426.328 335.711 426.168 335.742 426.02 335.68C425.871 335.621 425.777 335.48 425.781 335.32C425.836 330.891 427.262 328.453 431.684 325.297C431.824 325.195 431.879 325.023 431.828 324.863C431.773 324.699 431.625 324.594 431.457 324.598C430.18 324.609 429.172 325.211 428.188 325.867C428.035 325.969 427.844 325.953 427.711 325.828C427.578 325.703 427.551 325.512 427.637 325.355C431 319.43 437.34 315.855 440.609 309.07C440.688 308.91 440.648 308.727 440.512 308.609C440.375 308.492 440.188 308.484 440.039 308.586C439.445 309.004 439.023 309.297 438.625 309.621C436.062 311.691 434.094 310.941 431.93 308.723C429.609 306.336 427.68 303.309 424.289 302.312C424.145 302.27 423.996 302.312 423.895 302.426C422.883 303.551 425.086 304.379 424.094 305.223C422.969 306.18 422.133 304.809 421.281 304.434C418.855 303.359 416.422 302.84 413.777 303.152C413.617 303.168 413.488 303.281 413.449 303.441C413.41 303.602 413.473 303.758 413.605 303.852C414.07 304.168 414.707 304.309 414.891 304.941C414.926 305.062 414.902 305.184 414.824 305.285C414.75 305.383 414.637 305.438 414.512 305.434C411.168 305.367 408.16 306.34 405.84 308.922C405.742 309.023 405.715 309.16 405.758 309.293C405.801 309.43 405.902 309.523 406.039 309.555C407.105 309.801 408 307.957 409.078 309.082C409.207 309.219 409.223 309.422 409.113 309.574C407.754 311.5 405.113 312.871 404.715 315.828C404.691 316.012 404.793 316.184 404.965 316.242C405.141 316.309 405.328 316.242 405.426 316.086C405.699 315.648 405.922 315.203 406.371 315.012C406.512 314.949 406.668 314.977 406.781 315.082C406.895 315.184 406.938 315.336 406.891 315.48C406.145 317.859 405.129 320.258 405.445 322.973C405.469 323.164 405.621 323.305 405.812 323.312C406.004 323.324 406.168 323.195 406.207 323.008C406.414 322.055 406.484 321.055 407.172 320.297C407.281 320.172 407.449 320.133 407.602 320.195C407.754 320.258 407.848 320.398 407.844 320.562C407.77 323.703 408.695 326.43 410.266 328.992C410.328 329.094 410.426 329.156 410.543 329.172C410.664 329.188 410.773 329.152 410.859 329.07C411.004 328.93 411.082 328.797 411.109 328.668C411.141 328.523 411.238 328.418 411.379 328.379C411.516 328.336 411.656 328.371 411.758 328.473C413.656 330.359 415.504 332.195 417.066 333.75C417.188 333.867 417.215 334.039 417.145 334.191C417.07 334.344 416.914 334.426 416.75 334.406C406.918 333.195 400.492 330.871 400.504 317.398C400.508 313.371 400.238 309.328 401.809 305.457C405.586 296.152 413.07 294.465 420.648 296.039C425.605 297.066 430.465 297.289 435.492 297.309C435.652 297.309 435.785 297.219 435.848 297.078C435.91 296.934 435.883 296.773 435.777 296.66C430.293 290.789 416.852 288.699 406.512 291.301C406.348 291.344 406.184 291.277 406.094 291.137C406.004 290.996 406.012 290.82 406.117 290.688C409.453 286.52 413.348 283.359 417.832 281.461C421.992 279.699 425.484 283.219 429 285.156C431.82 286.715 433.816 289.262 436.629 291.793C436.766 291.918 436.961 291.93 437.109 291.82C437.258 291.715 437.312 291.523 437.238 291.355C434.199 284.262 430.586 278.262 427.375 272.062C421.473 260.672 414.035 250.324 405.785 240.539C404.488 239 403.223 237.438 401.949 235.879C401.379 235.176 400.148 234.699 400.648 233.574C401.137 232.473 402.258 232.215 403.43 232.383C410.762 233.434 417.605 235.656 423.234 240.738C423.844 241.289 424.332 241.996 424.996 242.461C428.609 244.992 429.598 247.922 427.375 252.086C426.531 253.664 426.523 255.414 426.727 257.219C426.75 257.41 426.906 257.555 427.102 257.562C427.293 257.566 427.461 257.43 427.492 257.238C428.539 250.879 432.902 246.988 439.188 244.828C443.551 243.324 449.957 245.816 452.332 248.773C455.574 252.805 455.953 259.023 452.332 264.203C452.238 264.332 452.086 264.395 451.93 264.359C451.773 264.32 451.66 264.203 451.633 264.043C450.809 259.012 448.285 256.508 443.785 256.227C439.797 255.977 436.832 258.562 435.574 263.453C434.949 265.887 435.762 268.23 437.07 270.047C438.645 272.23 440.719 274.164 442.887 275.789C447.082 278.926 447.32 278.938 443.18 281.801C443.055 281.883 442.992 282.023 443.016 282.172C443.035 282.316 443.129 282.434 443.273 282.484C444.512 282.906 445.508 281.66 446.633 281.586C447.445 281.535 448.23 281.062 449.312 280.441C449.484 280.344 449.695 280.387 449.812 280.547C449.934 280.703 449.914 280.922 449.773 281.055C448.309 282.453 446.609 282.977 445.402 284.141C445.301 284.238 445.262 284.375 445.293 284.512C445.328 284.648 445.422 284.75 445.559 284.789C447.637 285.406 449.336 283.988 451.613 283.602C451.805 283.57 451.992 283.684 452.047 283.871C452.102 284.059 452.012 284.258 451.832 284.336C449.84 285.207 448.059 285.984 446.355 286.73C446.176 286.809 446.086 287.004 446.137 287.191C446.191 287.379 446.371 287.496 446.566 287.469C459.309 285.555 472.133 283.797 482.898 274.91C483.016 274.812 483.168 274.793 483.305 274.855C483.441 274.918 483.527 275.047 483.527 275.199C483.562 277.668 483.68 280.008 482.895 282.664C482.84 282.844 482.922 283.035 483.09 283.117C483.258 283.203 483.457 283.156 483.57 283.008C485.27 280.762 485.547 278.43 485.617 276.508C485.852 270.07 487.977 263.25 482.883 257.445C480.438 254.664 477.555 252.781 474.012 252.164C468.523 251.215 464.887 256.078 466.93 261.375C467.09 261.797 467.215 262.23 467.34 262.691C467.383 262.848 467.328 263.004 467.199 263.102C467.066 263.199 466.902 263.207 466.762 263.121C460.312 259.117 459.129 253.035 461.297 247.668C463.707 241.688 470.613 239.184 477.223 241.438C485.27 244.184 489.641 249.836 491.613 257.379C491.664 257.57 491.848 257.695 492.043 257.664C492.238 257.637 492.379 257.469 492.375 257.27C492.156 250.488 489.551 244.594 484.047 240C481.781 238.109 481.73 236.457 482.316 233.891C483.895 227.004 488.992 222.266 492.438 216.527C494.555 213.004 496.52 209.438 497.629 204.582C497.672 204.406 497.824 204.281 498.008 204.285C498.191 204.285 498.344 204.41 498.383 204.586C500.367 213.676 506.016 219.809 510.355 226.641C511.648 228.672 512.738 230.707 513.438 233.008C514.289 235.812 514.578 237.875 511.672 240.238C506.117 244.762 503.734 250.871 503.473 257.707C503.465 257.902 503.602 258.07 503.797 258.102C503.992 258.133 504.176 258.016 504.227 257.828C506.145 251.141 509.352 245.32 516.363 242.301C522.715 239.562 527.926 239.727 533.395 245.496C535.984 248.227 536.238 256.098 533.992 258.754C532.688 260.297 531.25 261.727 529.598 263.023C529.465 263.129 529.285 263.133 529.145 263.039C529.004 262.945 528.941 262.777 528.988 262.613C529.414 261.129 529.57 259.703 529.668 258.207C529.832 255.73 528.449 254.371 526.828 253.191C523.953 251.09 519.34 252.207 515.43 255.105C507.758 260.801 509.75 268.883 510.227 276.406C510.352 278.406 510.113 280.777 511.391 282.844C511.484 282.992 511.656 283.059 511.824 283.012C511.992 282.961 512.105 282.812 512.105 282.641C512.105 280.211 512.105 277.801 512.105 275.102C512.105 274.949 512.188 274.816 512.324 274.754C512.461 274.688 512.613 274.707 512.734 274.801C523.723 283.637 536.605 285.633 549.504 287.539C549.695 287.566 549.879 287.449 549.93 287.262C549.984 287.078 549.895 286.883 549.715 286.805C546.965 285.59 544.211 284.375 541.457 283.16C541.379 283.125 541.34 283.035 541.363 282.953C541.375 282.914 541.391 282.871 541.402 282.832C541.461 282.629 541.676 282.512 541.879 282.57C545.75 283.688 549.621 284.809 553.496 285.93C553.578 285.953 553.664 285.914 553.699 285.836C553.715 285.801 553.73 285.766 553.746 285.734C553.828 285.551 553.754 285.336 553.578 285.238C551.602 284.133 549.605 283.023 547.379 281.781C547.227 281.695 547.152 281.527 547.191 281.359C547.23 281.191 547.367 281.07 547.539 281.059C549.387 280.93 550.766 282.004 552.453 282.309C552.617 282.34 552.777 282.262 552.859 282.113C552.938 281.965 552.918 281.793 552.805 281.668C551.777 280.547 550.828 279.508 549.801 278.391C549.715 278.297 549.684 278.18 549.707 278.055C549.73 277.934 549.805 277.836 549.918 277.781C553.492 276.059 556.211 273.348 558.598 270.324C561.344 266.848 561.023 262.051 558.055 258.801C555.125 255.594 551.328 255.32 547.223 258.031C545.012 259.488 544.762 261.859 544.289 264.207C544.258 264.363 544.141 264.48 543.98 264.508C543.824 264.539 543.672 264.473 543.586 264.34C540.605 259.734 539.992 255.07 542.738 250.066C546.668 242.91 559.352 242.27 565.512 250.785C567.035 252.883 568.395 255.234 568.238 258.066C568.203 258.73 568.188 259.594 569.191 259.422C570.105 259.266 570.02 258.312 569.812 257.766C568.637 254.676 569.164 251.09 567.152 248.289C566.391 247.227 566.738 246.73 567.434 245.895C573.879 238.117 582.203 233.832 592.102 232.363C593.398 232.172 594.402 232.781 595.691 233.328C595.809 233.379 595.891 233.477 595.914 233.602C595.941 233.73 595.91 233.852 595.82 233.945C580.281 250.59 568.953 269.867 558.871 290.879C558.789 291.047 558.84 291.246 558.992 291.355C559.145 291.469 559.348 291.453 559.484 291.324C574.344 277.184 578.621 280.945 589.465 291.336C589.59 291.457 589.621 291.637 589.539 291.793C589.461 291.949 589.293 292.027 589.121 291.992C578.797 289.875 569.012 289.75 559.594 296.566C559.457 296.664 559.402 296.832 559.449 296.992C559.5 297.152 559.641 297.258 559.809 297.266C565.516 297.422 570.469 297.418 575.426 296.25C586.602 293.625 594.219 299.84 595.352 311.363C595.75 315.41 595.367 319.359 594.727 323.418C593.836 329.059 590.488 331.617 585.586 333.02C583.094 333.73 580.566 334.34 577.68 335.07C577.508 335.113 577.332 335.039 577.246 334.883C577.16 334.727 577.191 334.539 577.32 334.414C580.016 331.855 582.438 329.562 584.852 327.273C584.969 327.164 585.129 327.137 585.277 327.203C585.422 327.27 585.508 327.41 585.5 327.57C585.496 327.652 585.5 327.73 585.516 327.809C585.547 327.969 585.664 328.086 585.82 328.117C585.98 328.148 586.133 328.082 586.219 327.945C587.629 325.738 588.242 323.324 587.953 320.605C587.938 320.441 588.02 320.289 588.172 320.219C588.32 320.148 588.492 320.176 588.609 320.293C589.262 320.941 589.469 321.707 589.586 322.484C589.613 322.68 589.781 322.82 589.977 322.812C590.172 322.809 590.332 322.66 590.352 322.465C590.578 320.059 590.418 317.723 588.867 315.602C588.789 315.5 588.77 315.379 588.809 315.258C588.848 315.137 588.934 315.047 589.055 315.008C589.633 314.816 589.855 315.293 590.07 315.531C590.164 315.637 590.246 315.754 590.324 315.883C590.418 316.043 590.609 316.109 590.785 316.051C590.957 315.988 591.062 315.82 591.039 315.637C590.676 312.832 588.184 311.52 586.746 309.547C586.684 309.457 586.66 309.355 586.68 309.242C586.703 309.133 586.762 309.047 586.859 308.988C587.723 308.465 588.527 309.203 589.605 309.492C589.777 309.539 589.953 309.465 590.039 309.309C590.129 309.152 590.102 308.965 589.973 308.84C587.398 306.359 584.664 305.34 581.375 305.516C581.238 305.523 581.113 305.461 581.035 305.344C580.957 305.23 580.949 305.094 581.008 304.969C581.473 303.965 582.523 303.738 583.453 303.246C583.617 303.156 583.695 302.965 583.641 302.789C583.582 302.609 583.41 302.496 583.223 302.52C579.355 303.016 575.707 303.695 572.254 305.449C572.137 305.508 572.004 305.504 571.887 305.438C571.77 305.371 571.703 305.258 571.695 305.121C571.633 303.715 572.836 303.203 573.473 302.258C573.566 302.117 573.562 301.938 573.457 301.805C573.355 301.672 573.184 301.621 573.023 301.68C569.883 302.797 567.59 304.926 565.359 307.18C560.957 311.613 560.641 311.906 555.895 308.582C555.75 308.48 555.559 308.488 555.422 308.602C555.289 308.719 555.246 308.902 555.324 309.066C558.539 315.719 564.754 319.484 568.227 325.359C568.32 325.516 568.293 325.711 568.16 325.836C568.031 325.961 567.836 325.98 567.684 325.879C566.723 325.246 565.738 324.602 564.387 324.543C564.211 324.535 564.062 324.641 564.004 324.805C563.949 324.969 564.004 325.145 564.145 325.246C567.66 327.734 569.988 330.734 570.426 334.992C570.445 335.152 570.363 335.301 570.223 335.375C570.082 335.449 569.914 335.43 569.793 335.324C568.969 334.625 568.172 333.945 567.383 333.273C567.254 333.164 567.078 333.152 566.934 333.238C566.789 333.324 566.719 333.488 566.758 333.652C567.535 337.121 568.125 340.449 566.094 343.938C566.023 344.062 565.898 344.129 565.754 344.129C565.613 344.125 565.488 344.051 565.422 343.926C564.07 341.387 563.926 338.512 561.309 336.527C553.73 330.777 545.953 330.68 537.613 334.059C534.566 335.297 531.523 336.57 528.414 337.641C523.797 339.223 522.391 338.984 519.391 334.68C519.285 334.535 519.301 334.34 519.418 334.203C519.539 334.07 519.73 334.035 519.891 334.121C523.301 335.965 525.969 334.469 528.816 333.145C533.238 331.09 537.051 327.863 541.531 325.891C541.711 325.809 541.801 325.605 541.742 325.418C541.68 325.227 541.484 325.117 541.293 325.16C538.418 325.789 535.707 326.984 532.984 328.109C527.246 330.48 523.785 330.051 520.73 326.316C520.625 326.184 520.613 326.012 520.703 325.867C520.793 325.727 520.953 325.656 521.117 325.695C525.422 326.688 529.559 326.188 533.605 324.16C538.598 321.664 543.41 318.602 548.973 317.801C549.172 317.773 549.316 317.594 549.305 317.395C549.289 317.195 549.129 317.039 548.93 317.035C543.91 316.918 539.016 318.535 533.68 320.551C533.516 320.613 533.34 320.562 533.234 320.422C533.129 320.285 533.129 320.102 533.23 319.961C533.715 319.305 534.102 318.773 534.477 318.266C534.582 318.121 534.578 317.934 534.465 317.793C534.352 317.656 534.164 317.613 534.004 317.688C523.551 322.516 519.836 321.879 517.16 314.934C517.102 314.785 516.965 314.688 516.805 314.688C516.641 314.688 516.5 314.781 516.441 314.934C511.824 326.621 513.805 337.961 518.059 349.297C521.383 358.164 524.895 366.996 526.254 376.434C526.281 376.633 526.453 376.773 526.652 376.766C526.852 376.758 527.008 376.602 527.02 376.402C527.48 368.25 525.812 360.262 524.91 352.184C524.891 352 524.996 351.832 525.172 351.773C525.348 351.719 525.531 351.785 525.625 351.945C527.457 355.059 529.809 357.66 532.75 359.781C532.895 359.887 533.09 359.879 533.227 359.762C533.363 359.641 533.398 359.449 533.316 359.289C531.777 356.34 529.652 353.648 529.039 350.199C529.008 350.035 529.078 349.883 529.219 349.797C529.359 349.715 529.531 349.727 529.656 349.828C535.453 354.449 542.078 355.016 548.898 354.762C549.094 354.758 549.25 354.605 549.266 354.41C549.281 354.215 549.152 354.039 548.961 354C543.086 352.816 537.469 350.895 532.641 345.957C532.512 345.824 532.496 345.625 532.598 345.473C532.699 345.32 532.887 345.258 533.059 345.328C537.348 347.023 541.254 349.816 544.582 345.059C545.785 343.34 545.801 341.207 544.387 338.934C544.285 338.773 544.312 338.57 544.453 338.445C544.59 338.316 544.793 338.309 544.945 338.422C549.129 341.582 548.816 344.898 544.207 348.438C544.074 348.543 544.023 348.711 544.078 348.871C544.133 349.027 544.273 349.133 544.441 349.133C545.875 349.133 546.977 349.133 548.082 349.133C549.133 349.133 550.18 349.133 551.566 349.133C551.738 349.133 551.887 349.02 551.938 348.852C551.984 348.684 551.918 348.508 551.766 348.418C550.75 347.789 549.902 347.266 549.062 346.75C548.949 346.676 548.883 346.562 548.879 346.426C548.879 346.289 548.941 346.172 549.055 346.098C551.043 344.785 552.809 343.438 552.766 340.852C552.762 340.715 552.828 340.598 552.941 340.523C553.059 340.449 553.191 340.438 553.316 340.496C566.531 346.766 578.785 363.18 574.863 381.605C574.824 381.793 574.656 381.918 574.465 381.91C574.27 381.898 574.117 381.75 574.102 381.559C573.914 379.531 573.52 377.527 572.34 375.633C572.254 375.488 572.09 375.422 571.926 375.461C571.762 375.496 571.648 375.629 571.629 375.797C570.965 382.293 567.395 386.73 562.516 390.34C562.359 390.453 562.148 390.438 562.016 390.305C561.879 390.168 561.859 389.957 561.973 389.801C566.492 383.574 567.691 376.883 565.668 369.719C565.613 369.531 565.43 369.414 565.238 369.445C565.043 369.473 564.902 369.641 564.91 369.836C565.008 372.98 564.258 376.059 563.293 379.121C561.742 384.039 558.648 387.73 554.203 390.238C549.297 393.004 544.871 392.367 540.391 388.281C539.496 387.465 538.719 386.527 537.82 385.707C537.68 385.578 537.473 385.57 537.324 385.688C537.176 385.801 537.129 386.004 537.219 386.172C539.559 390.621 542.895 394.109 547.805 395.91C548.742 396.254 549.918 396.48 550.113 397.297C551.43 402.781 556.207 403.051 560.344 404.359C560.73 404.48 561.082 404.727 561.559 405.078C561.703 405.184 561.758 405.367 561.688 405.535C561.617 405.699 561.453 405.797 561.273 405.77C552.734 404.48 544.734 402.809 536.668 402.188C536.465 402.172 536.289 402.312 536.254 402.508C536.223 402.707 536.348 402.895 536.539 402.945C541.898 404.332 547.117 406.098 552.164 408.383C553.672 409.066 555.848 416.289 554.977 417.613C554.258 418.703 553.414 418.059 552.512 417.762C545.871 415.551 539.266 413.25 532.312 412.07C531.242 411.891 530.215 411.793 528.926 411.754C528.734 411.75 528.57 411.883 528.535 412.07C528.5 412.258 528.605 412.441 528.789 412.504C540.664 416.699 551.82 420.898 562.609 427.238C562.758 427.328 562.828 427.5 562.785 427.668C562.742 427.836 562.598 427.953 562.426 427.957C560.141 428.027 558.602 426.633 557.035 426.051C554.492 425.105 554.309 425.754 554.207 427.965C554.012 432.098 553.062 432.426 549.379 430.184C544.438 427.172 539.121 425.02 533.625 423.234C533.438 423.172 533.242 423.262 533.156 423.438C533.074 423.613 533.133 423.82 533.297 423.926C540.531 428.582 547.883 433.078 554.41 439.113C554.551 439.242 554.578 439.445 554.477 439.605C554.375 439.762 554.18 439.824 554.008 439.754C550.746 438.445 548.199 439.82 546.258 443.039C546.191 443.148 546.086 443.215 545.957 443.223C545.828 443.234 545.715 443.184 545.633 443.086C541.297 437.949 535.676 435.195 529.746 433.02C524.805 431.207 519.777 429.621 514.738 428.098C507.562 425.926 501.355 418.121 501.621 409.988C501.688 407.934 501.383 405.844 501.68 403.832C502.324 399.461 502.973 395.152 508.66 394.039C510.605 393.656 512.77 392.543 513.867 390.109C514.449 388.836 515.82 386.703 518.059 388.207C519.559 389.219 520.332 390.527 519.379 392.184C519.293 392.328 519.312 392.504 519.422 392.629C519.535 392.758 519.703 392.797 519.859 392.73C523.246 391.332 524.816 388.957 524.668 385.254C524.52 381.492 523.039 379.02 519.035 378.398C516.281 377.969 513.625 376.895 510.773 377.09C505.734 377.434 500.77 375.457 495.777 376.328C489.91 377.352 483.922 376.566 478.102 377.902C474.355 378.766 471.594 380.531 471.211 384.746C470.855 388.652 472.453 391.254 476.355 393.094C476.508 393.168 476.684 393.133 476.801 393.008C476.918 392.883 476.938 392.707 476.855 392.555C475.691 390.5 476.191 388.996 478.062 388.039C480.312 386.891 481.668 389.078 482.199 390.332C483.215 392.723 485.32 393.664 487.117 393.98C492.141 394.871 493.633 398.562 494.039 402.512C494.465 406.629 494.848 410.906 493.676 415.059C491.199 423.848 484.453 427.582 476.355 429.699C468.133 431.852 460.203 434.695 453.328 439.863C452.242 440.68 451.121 441.586 450.441 443.348C450.387 443.492 450.254 443.586 450.102 443.594C449.945 443.602 449.809 443.523 449.738 443.383C447.117 438.234 444.109 438.719 440.969 440.445C440.793 440.543 440.578 440.488 440.465 440.324C440.352 440.164 440.379 439.941 440.531 439.812C447.773 433.633 455.562 428.273 464.398 423.227C464.562 423.133 464.637 422.938 464.57 422.758C464.504 422.582 464.324 422.48 464.137 422.516C460.484 423.195 457.805 424.758 455.027 425.891C451.973 427.141 449.023 428.723 446.199 430.441C443.012 432.387 441.594 431.422 441.652 427.977C441.703 424.996 440.68 425.656 438.5 426.227C436.348 426.789 434.59 428.574 432.043 428.801C431.859 428.816 431.699 428.711 431.641 428.539C431.586 428.367 431.652 428.184 431.805 428.09C442.805 421.344 454.449 416.988 466.098 412.645C466.277 412.578 466.379 412.387 466.336 412.199C466.297 412.012 466.125 411.883 465.93 411.898C459.051 412.457 452.582 414.805 446.027 416.762C445.145 417.023 444.227 417.258 443.43 417.699C440.898 419.094 440.723 417.672 440.801 415.672C441.027 410.066 444.355 407.258 449.418 406.012C452.605 405.227 455.648 403.938 458.809 403.027C459 402.973 459.117 402.785 459.082 402.59C459.047 402.395 458.875 402.258 458.676 402.273C451.242 402.793 443.926 404.242 436.504 405.137C436.312 405.16 436.133 405.039 436.086 404.852C436.039 404.664 436.133 404.469 436.312 404.398C437.523 403.902 438.738 403.414 439.98 403.008C442.41 402.211 444.809 401.59 444.977 398.324C445.027 397.336 446.117 396.984 447.035 396.625C453.32 394.168 457.734 389.797 460.98 383.141C461.059 382.973 461.016 382.777 460.867 382.664C460.723 382.551 460.52 382.559 460.383 382.676C459.59 383.355 459.102 383.914 458.738 384.797C458.297 385.859 457.145 386.637 456.27 387.5C451.094 392.578 446.023 393.109 440.203 389.199C433.562 384.738 430.086 375.934 431.715 367.828C431.766 367.566 431.762 367.289 431.734 366.988C431.715 366.809 431.582 366.672 431.402 366.645C431.227 366.617 431.059 366.715 430.992 366.883C427.684 375.055 429.02 382.516 433.371 389.191C433.477 389.355 433.445 389.566 433.301 389.695C433.156 389.82 432.941 389.82 432.793 389.695V389.691ZM538.625 341.629C538.355 342.723 537.703 343.484 536.406 343.348C535.141 343.219 534.422 342.449 534.547 341.152C534.668 339.883 535.445 339.172 536.742 339.293C538.004 339.406 538.625 340.188 538.633 341.535C538.637 341.566 538.633 341.598 538.625 341.629ZM459.723 343.379C458.141 343.359 457.375 342.738 457.258 341.484C457.141 340.188 457.855 339.41 459.121 339.293C460.418 339.168 461.18 339.887 461.32 341.152C461.465 342.445 460.621 342.988 459.895 343.34C459.836 343.367 459.785 343.379 459.723 343.379ZM371.184 336.961C374.547 330 379.023 323.824 383.285 317.523C384.242 316.102 385.598 314.691 387.102 313.934C394.117 310.395 395.809 311.336 395.41 319.027C395.293 321.309 398.16 323.863 395.352 325.695C393.559 326.867 391.078 326.93 389.039 327.801C382.965 330.398 377.152 333.48 371.762 337.438C371.617 337.543 371.426 337.539 371.285 337.422C371.148 337.309 371.109 337.121 371.184 336.961ZM624.453 337.977C617.512 332.719 609.922 328.898 601.664 326.379C600.305 325.965 598.789 325.695 599.531 323.93C600.809 320.891 600.137 317.781 600.262 314.707C600.336 312.84 600.145 311.816 602.914 312.473C607.672 313.602 611.461 315.512 614.164 319.766C617.879 325.613 621.996 331.211 625.031 337.504C625.109 337.664 625.07 337.855 624.93 337.969C624.789 338.082 624.594 338.086 624.453 337.977ZM506.234 482.543C511.754 479.703 517.551 478.609 522.535 475.273C525.434 473.336 529.344 475.785 532.828 475.969C534.406 476.055 536.184 476.277 537.879 476.605C537.992 476.629 538.082 476.691 538.141 476.793C538.199 476.891 538.207 477 538.172 477.109C536.402 482.332 532.852 486.508 530.133 491.148C529.75 491.805 529.191 492.375 528.137 491.988C520.852 489.336 513.289 487.355 506.219 483.219C506.094 483.145 506.023 483.02 506.027 482.875C506.031 482.73 506.105 482.605 506.234 482.543ZM636.461 389.746C633.008 383.523 628.93 377.887 624.227 372.859C618.859 367.117 612.258 362.711 605.434 358.73C597.426 354.062 589.539 349.188 582.129 343.609C580.836 342.637 578.32 341.082 579.262 339.758C580.184 338.461 582.766 338.094 585.031 339.27C594.781 344.324 605.535 346.77 615.691 350.789C620.395 352.648 624.586 355.402 628.742 358.242C634.16 361.938 634.48 367.914 635.418 373.453C636.316 378.758 636.672 384.152 637.18 389.52C637.199 389.707 637.09 389.871 636.914 389.926C636.734 389.98 636.551 389.906 636.461 389.746ZM416.762 340.754C410.523 346.594 403.547 350.945 396.508 355.164C387.945 360.297 379.348 365.441 372.113 372.344C367.301 376.934 363.559 382.551 360.25 388.367C359.723 389.297 359.273 390.27 358.719 391.211C358.629 391.367 358.453 391.438 358.281 391.387C358.109 391.336 357.996 391.184 358.004 391.004C358.285 382.211 358.965 373.43 361.445 365.105C363.09 359.586 368.941 356.953 373.824 354.211C382.613 349.273 392.52 347.109 401.797 343.367C404.48 342.285 407.363 341.496 409.77 339.969C412.164 338.445 414.117 338.535 416.703 340.145C416.809 340.211 416.871 340.312 416.883 340.434C416.895 340.559 416.852 340.668 416.762 340.754ZM462.145 467.367C471.801 474.934 478.82 484.078 487.805 491.043C496.934 498.125 506.809 504.016 517.547 508.656C517.652 508.703 517.727 508.781 517.762 508.891C517.797 509 517.785 509.105 517.727 509.207C514.902 514.02 509.957 516.453 506.094 520C505.59 520.461 504.668 520.855 503.434 520.035C490.609 511.543 480.062 500.914 471.977 487.797C468.156 481.598 465.172 475.008 461.559 467.844C461.477 467.68 461.52 467.488 461.66 467.371C461.801 467.258 462 467.254 462.145 467.367ZM418.23 354.926C415.617 361.594 412.121 367.68 407.898 373.324C401.738 381.562 394.707 389.062 387.418 396.309C378.809 404.875 371.641 414.359 367.555 425.957C365.938 430.559 364.758 435.25 364.055 440.996C364.035 441.168 363.902 441.305 363.727 441.328C363.555 441.355 363.391 441.262 363.32 441.102C361.832 437.695 361.617 434.816 360.871 432.074C359.598 427.387 359.672 422.562 358.621 417.871C357.34 412.16 360.766 407.875 363.73 403.641C369.543 395.344 377.863 389.746 385.918 383.98C397.781 375.488 409.066 366.473 417.555 354.559C417.668 354.402 417.883 354.352 418.055 354.445C418.227 354.539 418.301 354.742 418.23 354.926ZM577.219 352.094C586.027 366.344 598.719 375.871 611.512 385.25C620.398 391.762 629.125 398.273 635.52 407.574C638.738 412.258 638.492 417.129 637.953 421.926C637.129 429.289 635.348 436.547 633.906 443.84C633.816 444.301 633.535 444.723 633.211 445.207C633.117 445.344 632.957 445.406 632.801 445.367C632.641 445.328 632.527 445.203 632.508 445.039C630.723 431.039 625.398 418.73 616.703 408.008C609.582 399.227 601.855 390.938 594.492 382.352C587.012 373.633 581.383 363.738 576.504 353.391C576.379 353.121 576.43 352.77 576.508 352.242C576.531 352.078 576.648 351.953 576.809 351.922C576.973 351.887 577.129 351.953 577.215 352.094H577.219ZM436.117 453.43C440.941 468.074 446.797 482.172 454.965 495.297C463.836 509.555 474.859 521.707 489.109 531.242C489.211 531.312 489.27 531.414 489.277 531.539C489.285 531.664 489.238 531.773 489.145 531.855C484.266 536.02 478.711 538.75 472.914 541.125C471.898 541.539 471.41 541.406 470.867 540.734C464.633 532.953 458.215 525.305 453.301 516.559C445.402 502.492 440.547 487.34 437.605 471.582C436.496 465.652 435.992 459.609 435.367 453.59C435.348 453.391 435.477 453.211 435.672 453.172C435.867 453.129 436.059 453.238 436.117 453.43ZM414.695 387.898C412.961 395.723 409.84 402.898 406.613 410.023C400.969 422.5 395.078 434.84 392.191 448.402C389.066 463.105 389.652 477.578 393.465 491.996C393.707 492.914 393.812 493.805 393.949 494.715C394.043 495.324 394.805 495.754 394.605 496.57C394.57 496.711 394.465 496.816 394.324 496.852C394.18 496.887 394.039 496.844 393.941 496.734C386.582 488.469 379.926 479.793 375.316 469.75C373.875 466.609 375.555 463.043 376.109 459.824C377.828 449.809 380.742 440.039 385.145 430.852C388.98 422.848 393.973 415.465 399.297 408.387C404.422 401.578 409.555 394.797 413.988 387.613C414.09 387.453 414.289 387.387 414.465 387.457C414.641 387.531 414.734 387.715 414.695 387.898ZM600.562 496.043C601.82 490.055 603.191 484.582 603.941 479.027C604.961 471.449 604.914 463.746 604.027 456.172C601.902 438.016 593.582 421.957 586.312 405.551C583.766 399.805 581.223 394.027 580.137 387.766C580.105 387.578 580.207 387.402 580.387 387.336C580.562 387.27 580.754 387.34 580.852 387.504C589.949 403.078 603.066 415.977 610.395 432.691C614.898 442.965 617.504 453.637 619.406 464.664C620.418 470.512 617.402 474.293 614.961 478.383C611.172 484.727 606.473 490.469 601.227 496.379C601.109 496.512 600.922 496.547 600.766 496.469C600.605 496.387 600.523 496.219 600.562 496.043ZM487.227 543.137C525.516 523.449 547.07 491.195 560.035 450.973C560.094 450.793 560.266 450.684 560.453 450.707C560.637 450.73 560.773 450.879 560.789 451.062C560.891 452.578 560.996 453.754 560.582 454.703C559.801 456.492 560.246 458.191 560 459.906C558.129 473.031 556.168 486.125 551.484 498.645C547.145 510.258 541.051 520.863 533.465 530.629C531.258 533.477 528.727 536.102 526.746 539.098C525.125 541.551 522.523 540.887 520.543 541.336C509.777 543.777 498.824 544.543 487.379 543.867C487.203 543.855 487.062 543.734 487.027 543.562C486.988 543.391 487.07 543.219 487.227 543.137ZM549.414 531.695C552.566 527.551 555.562 523.34 558.305 518.957C565.91 506.785 570.609 493.625 572.414 479.332C573.605 469.891 574.629 460.41 573.824 450.977C573.125 442.797 573.285 434.66 573.195 426.504C573.148 422.152 573.805 417.863 574.688 413.598C574.727 413.41 574.895 413.281 575.086 413.293C575.277 413.301 575.43 413.445 575.449 413.637C576.723 425.953 581.238 437.504 583.977 449.445C587.023 462.73 587.832 475.957 586.473 489.516C585.844 495.816 584.031 501.766 582.934 507.91C582.336 511.266 580.363 514.09 577.551 516.129C568.887 522.418 559.805 528.004 549.871 532.285C549.707 532.355 549.523 532.309 549.414 532.168C549.305 532.027 549.305 531.836 549.414 531.695ZM420.16 412.715C421.844 422.035 422.484 430.715 421.746 439.359C421.105 446.844 421.062 454.301 421.082 461.773C421.125 480.16 424.785 497.738 433.586 514.02C436.484 519.383 439.812 524.531 443.758 529.215C444.41 529.988 444.844 530.809 445.32 531.891C445.383 532.031 445.355 532.188 445.254 532.301C445.152 532.418 445.004 532.461 444.855 532.414C441.348 531.367 438.621 529.246 435.613 527.75C429.062 524.488 423.062 520.344 417.297 515.891C414.301 513.574 412.609 510.531 411.684 506.562C409.742 498.207 408.391 489.887 407.754 481.297C406.508 464.465 410.926 448.688 415.328 432.848C417.137 426.352 418.242 419.73 419.398 412.723C419.43 412.535 419.59 412.398 419.777 412.398C419.969 412.398 420.125 412.531 420.16 412.715ZM539.742 449.004C537.723 447.434 535.297 446.578 533.031 445.43C532.844 445.332 532.613 445.406 532.516 445.59C532.422 445.766 532.355 445.891 532.391 445.93C536.977 451.055 537 454.027 532.414 460.969C532.113 461.422 531.648 461.75 531.312 462.203C531.219 462.332 531.066 462.387 530.914 462.352C530.762 462.316 530.652 462.199 530.621 462.047C530.078 459.082 531.086 455.957 529.613 452.977C529.535 452.816 529.363 452.734 529.188 452.77C529.012 452.809 528.891 452.953 528.883 453.133C528.523 461.281 524.715 467.254 517.961 472.504C517.824 472.609 517.645 472.613 517.504 472.516C517.363 472.418 517.305 472.246 517.355 472.082C518.605 468.148 519.703 464.781 518.027 461.254C517.957 461.102 517.801 461.016 517.633 461.035C517.465 461.059 517.336 461.18 517.301 461.344C516.332 466.242 513.859 470.125 510.172 473.477C506.418 476.895 501.441 478.684 498.297 482.809C498.223 482.902 498.125 482.953 498.008 482.957C497.891 482.965 497.785 482.922 497.707 482.836C491.504 476.148 481.566 473.113 478.777 463.469C478.723 463.289 478.555 463.172 478.367 463.191C478.184 463.211 478.039 463.352 478.023 463.539C477.766 466.258 477.656 468.902 478.676 471.656C478.73 471.809 478.688 471.973 478.566 472.078C478.445 472.188 478.277 472.207 478.137 472.133C471.852 468.879 468.633 461.453 469.273 452.461C469.285 452.285 469.184 452.129 469.02 452.07C468.855 452.012 468.676 452.066 468.574 452.207C466.543 455.043 466.059 458.359 465.336 461.902C465.305 462.047 465.207 462.156 465.062 462.195C464.922 462.234 464.777 462.195 464.676 462.09C462.48 459.75 461.664 456.898 460.414 454.191C458.715 450.504 460.75 448.629 463.23 446.277C463.363 446.148 463.391 445.953 463.293 445.793C463.199 445.637 463.012 445.57 462.836 445.633C460.133 446.578 457.945 447.734 455.715 449.672C455.574 449.793 455.375 449.797 455.227 449.688C455.082 449.574 455.035 449.379 455.117 449.211C457.371 444.594 461.039 442.668 465 441.254C474.871 437.719 484.582 434.008 492.621 426.883C495.703 424.156 499.602 423.863 502.84 426.613C511.41 433.883 521.465 438.031 531.922 441.621C535.438 442.828 538.719 444.828 540.332 448.547C540.402 448.711 540.355 448.895 540.215 449.004C540.074 449.113 539.883 449.113 539.742 449.004ZM488.484 312.312C489.328 313.898 490.109 315.535 490.055 317.652C490.047 317.824 489.938 317.969 489.773 318.016C489.605 318.062 489.438 317.996 489.344 317.852C482.883 307.836 473.059 305.637 462.676 304.641C462.48 304.625 462.328 304.461 462.324 304.266C462.32 304.07 462.465 303.902 462.66 303.875C474.137 302.363 485.355 303.07 495.883 308.906C497.805 309.973 499.176 309.441 500.645 308.527C505.359 305.582 510.652 304.777 516.012 303.812C521.641 302.801 527.156 303.145 532.711 303.871C532.906 303.895 533.051 304.062 533.047 304.262C533.043 304.457 532.891 304.621 532.695 304.637C527.969 305.039 523.328 305.93 518.914 307.664C513.613 309.742 508.949 312.793 506.629 318.656C506.566 318.82 506.406 318.918 506.23 318.898C506.055 318.879 505.922 318.75 505.891 318.578C505.469 316.078 506.75 314.266 507.668 312.355C507.738 312.211 507.711 312.039 507.598 311.922C507.484 311.805 507.316 311.77 507.164 311.836C503.086 313.594 499.773 320.094 498.297 330.82C498.273 331.012 498.109 331.152 497.914 331.152C497.719 331.152 497.559 331.008 497.535 330.812C496.605 323.188 495.09 316.469 489.062 311.824C488.914 311.711 488.719 311.719 488.578 311.836C488.438 311.953 488.398 312.148 488.484 312.312ZM542.328 290.785C545.922 290.785 548.836 293.699 548.836 297.293C548.836 300.883 545.922 303.797 542.328 303.797C538.738 303.797 535.824 300.883 535.824 297.293C535.824 293.699 538.738 290.785 542.328 290.785ZM453.535 290.781C457.125 290.781 460.039 293.691 460.039 297.285C460.039 300.875 457.125 303.789 453.535 303.789C449.941 303.789 447.027 300.875 447.027 297.285C447.027 293.691 449.941 290.781 453.535 290.781ZM476.148 288.77C479.742 288.77 482.652 291.684 482.652 295.277C482.652 298.867 479.742 301.781 476.148 301.781C472.555 301.781 469.645 298.867 469.645 295.277C469.645 291.684 472.555 288.77 476.148 288.77ZM497.934 287.125C501.523 287.125 504.438 290.039 504.438 293.629C504.438 297.219 501.523 300.133 497.934 300.133C494.34 300.133 491.43 297.219 491.43 293.629C491.43 290.039 494.34 287.125 497.934 287.125ZM519.719 288.77C523.309 288.77 526.223 291.684 526.223 295.277C526.223 298.867 523.309 301.781 519.719 301.781C516.125 301.781 513.215 298.867 513.215 295.277C513.215 291.684 516.125 288.77 519.719 288.77Z" fill="#FFE500"/>
</svg>
